<svg width="60" height="60" viewBox="0 0 60 60" fill="none" xmlns="http://www.w3.org/2000/svg">
<path d="M57 54H55V36.8994C56.1285 36.6674 57.1426 36.0534 57.8712 35.161C58.5998 34.2685 58.9985 33.1521 59 32V30C59 29.8588 58.97 29.7193 58.9121 29.5905C58.8541 29.4618 58.7694 29.3469 58.6636 29.2534L58.6644 29.2526L50 21.5509V14C49.9991 13.2046 49.6827 12.4421 49.1203 11.8797C48.5579 11.3173 47.7954 11.0009 47 11H40.4201L39.9965 5.917C39.9757 5.66702 39.8617 5.43399 39.6771 5.26414C39.4925 5.09428 39.2508 5 39 5H34V3C34.0004 2.42071 33.8329 1.85372 33.5179 1.36759C33.2028 0.881455 32.7537 0.497003 32.2248 0.260724C31.6959 0.0244437 31.1098 -0.0535446 30.5376 0.0361894C29.9653 0.125923 29.4312 0.379536 29 0.76636C28.5688 0.379536 28.0347 0.125923 27.4624 0.0361894C26.8902 -0.0535446 26.3041 0.0244437 25.7752 0.260724C25.2463 0.497003 24.7972 0.881455 24.4821 1.36759C24.1671 1.85372 23.9996 2.42071 24 3V5H21C20.7492 5 20.5075 5.09428 20.3229 5.26414C20.1383 5.43399 20.0243 5.66702 20.0035 5.917L19.5799 11H13C12.2046 11.0009 11.4421 11.3173 10.8797 11.8797C10.3173 12.4421 10.0009 13.2046 10 14V21.5509L1.33563 29.2526L1.33636 29.2534C1.23061 29.3469 1.14594 29.4618 1.08795 29.5905C1.02996 29.7193 0.999981 29.8588 1 30V32C1.0015 33.1521 1.40017 34.2685 2.1288 35.161C2.85743 36.0534 3.87147 36.6674 5 36.8994V54H3C2.20435 54 1.44129 54.3161 0.87868 54.8787C0.316071 55.4413 0 56.2044 0 57C0 57.7957 0.316071 58.5587 0.87868 59.1213C1.44129 59.6839 2.20435 60 3 60H57C57.7957 60 58.5587 59.6839 59.1213 59.1213C59.6839 58.5587 60 57.7957 60 57C60 56.2044 59.6839 55.4413 59.1213 54.8787C58.5587 54.3161 57.7957 54 57 54ZM57 32C57 32.7957 56.6839 33.5587 56.1213 34.1213C55.5587 34.6839 54.7957 35 54 35C53.2043 35 52.4413 34.6839 51.8787 34.1213C51.3161 33.5587 51 32.7957 51 32V31H57V32ZM11.3802 23H13.1957L9.44571 29H4.63023L11.3802 23ZM55.3698 29H50.5543L46.8043 23H48.6198L55.3698 29ZM44.4457 23L48.1957 29H42.8828L42.1328 23H44.4457ZM40.1172 23L40.8672 29H35V23H40.1172ZM33 29H27V23H33V29ZM25 29H19.1327L19.8827 23H25V29ZM17.1173 29H11.8043L15.5543 23H17.8673L17.1173 29ZM11 31H17V32C17 32.7957 16.6839 33.5587 16.1213 34.1213C15.5587 34.6839 14.7956 35 14 35C13.2044 35 12.4413 34.6839 11.8787 34.1213C11.3161 33.5587 11 32.7957 11 32V31ZM19 31H25V32C25 32.7957 24.6839 33.5587 24.1213 34.1213C23.5587 34.6839 22.7956 35 22 35C21.2044 35 20.4413 34.6839 19.8787 34.1213C19.3161 33.5587 19 32.7957 19 32V31ZM27 31H33V32C33 32.7957 32.6839 33.5587 32.1213 34.1213C31.5587 34.6839 30.7956 35 30 35C29.2044 35 28.4413 34.6839 27.8787 34.1213C27.3161 33.5587 27 32.7957 27 32V31ZM35 31H41V32C41 32.7957 40.6839 33.5587 40.1213 34.1213C39.5587 34.6839 38.7957 35 38 35C37.2043 35 36.4413 34.6839 35.8787 34.1213C35.3161 33.5587 35 32.7957 35 32V31ZM43 31H49V32C49 32.7957 48.6839 33.5587 48.1213 34.1213C47.5587 34.6839 46.7957 35 46 35C45.2043 35 44.4413 34.6839 43.8787 34.1213C43.3161 33.5587 43 32.7957 43 32V31ZM38.0799 7L38.9132 17H34.9201L34.0868 7H38.0799ZM31 2C31.2651 2.00031 31.5193 2.10576 31.7068 2.29323C31.8942 2.4807 31.9997 2.73488 32 3V5H30V3C30.0003 2.73488 30.1058 2.4807 30.2932 2.29323C30.4807 2.10576 30.7349 2.00031 31 2ZM26 3C26 2.73479 26.1054 2.48043 26.2929 2.2929C26.4804 2.10536 26.7348 2 27 2C27.2652 2 27.5196 2.10536 27.7071 2.2929C27.8946 2.48043 28 2.73479 28 3V5H26V3ZM21.9201 7H24V9H26V7H28V9H30V7H32.0799L32.9132 17H21.0868L21.9201 7ZM12 14C12.0003 13.7349 12.1058 13.4807 12.2932 13.2932C12.4807 13.1058 12.7349 13.0003 13 13H19.4132L19.0035 17.917C18.992 18.0548 19.0092 18.1936 19.0541 18.3244C19.0989 18.4552 19.1705 18.5754 19.2641 18.6771C19.3578 18.7789 19.4715 18.8602 19.5982 18.9158C19.7249 18.9713 19.8617 19 20 19H40C40.1383 19 40.2751 18.9713 40.4018 18.9158C40.5285 18.8602 40.6422 18.7789 40.7359 18.6771C40.8295 18.5754 40.9011 18.4552 40.9459 18.3244C40.9908 18.1936 41.008 18.0548 40.9965 17.917L40.5868 13H47C47.2651 13.0003 47.5193 13.1058 47.7068 13.2932C47.8942 13.4807 47.9997 13.7349 48 14V21H12V14ZM3 32V31H9V32C9 32.7957 8.68393 33.5587 8.12132 34.1213C7.55871 34.6839 6.79565 35 6 35C5.20435 35 4.44129 34.6839 3.87868 34.1213C3.31607 33.5587 3 32.7957 3 32ZM7 36.8994C8.19891 36.653 9.26609 35.9761 10 34.9965C10.4651 35.6184 11.0688 36.1233 11.7632 36.4711C12.4575 36.8189 13.2234 37 14 37C14.7766 37 15.5425 36.8189 16.2368 36.4711C16.9312 36.1233 17.5349 35.6184 18 34.9965C18.4651 35.6184 19.0688 36.1233 19.7632 36.4711C20.4575 36.8189 21.2234 37 22 37C22.7766 37 23.5425 36.8189 24.2368 36.4711C24.9312 36.1233 25.5349 35.6184 26 34.9965C26.4651 35.6184 27.0688 36.1233 27.7632 36.4711C28.4575 36.8189 29.2234 37 30 37C30.7766 37 31.5425 36.8189 32.2368 36.4711C32.9312 36.1233 33.5349 35.6184 34 34.9965C34.4651 35.6184 35.0688 36.1233 35.7632 36.4711C36.4575 36.8189 37.2234 37 38 37C38.7766 37 39.5425 36.8189 40.2368 36.4711C40.9312 36.1233 41.5349 35.6184 42 34.9965C42.4651 35.6184 43.0688 36.1233 43.7632 36.4711C44.4575 36.8189 45.2234 37 46 37C46.7766 37 47.5425 36.8189 48.2368 36.4711C48.9312 36.1233 49.5349 35.6184 50 34.9965C50.7339 35.9761 51.8011 36.653 53 36.8994V54H35V40C35 39.7348 34.8946 39.4804 34.7071 39.2929C34.5196 39.1054 34.2652 39 34 39H26C25.7348 39 25.4804 39.1054 25.2929 39.2929C25.1054 39.4804 25 39.7348 25 40V54H7V36.8994ZM33 54H27V41H33V54ZM57 58H3C2.73478 58 2.48043 57.8946 2.29289 57.7071C2.10536 57.5196 2 57.2652 2 57C2 56.7348 2.10536 56.4804 2.29289 56.2929C2.48043 56.1054 2.73478 56 3 56H57C57.2652 56 57.5196 56.1054 57.7071 56.2929C57.8946 56.4804 58 56.7348 58 57C58 57.2652 57.8946 57.5196 57.7071 57.7071C57.5196 57.8946 57.2652 58 57 58Z" fill="#BF1731"/>
</svg>
