<svg width="64" height="64" viewBox="0 0 64 64" fill="none" xmlns="http://www.w3.org/2000/svg">
<g clip-path="url(#clip0_195_249)">
<path d="M63.4731 18.28L32.5397 0.146635C32.2144 -0.0432405 31.8144 -0.0496155 31.4849 0.13276L0.5515 17.1995C0.21125 17.3861 0 17.7445 0 18.1328V62.9328C0 63.5226 0.477875 63.9994 1.06662 63.9994H6.4C6.98875 63.9994 7.46663 63.5226 7.46663 62.9328V25.5995H56.5332V62.9329C56.5332 63.5228 57.01 63.9995 57.5999 63.9995H62.9333C63.5231 63.9995 63.9999 63.5228 63.9999 62.9329V19.1995C64 18.8208 63.7995 18.4709 63.4731 18.28ZM61.8666 61.8661H58.6666V24.5328C58.6666 23.944 58.1899 23.4661 57.6 23.4661H6.4C5.81125 23.4661 5.33337 23.944 5.33337 24.5328V61.8661H2.13337V18.7621L31.984 2.29276L61.8666 19.8106V61.8661Z" fill="#BF1731"/>
<path d="M53.3334 49.0664H40.5334C39.9435 49.0664 39.4668 49.5432 39.4668 50.133V62.933C39.4668 63.5229 39.9435 63.9997 40.5334 63.9997H53.3334C53.9233 63.9997 54.4 63.5229 54.4 62.933V50.133C54.4 49.5432 53.9233 49.0664 53.3334 49.0664ZM52.2667 61.8664H41.6V51.1998H52.2667V61.8664Z" fill="#BF1731"/>
<path d="M47.9999 50.1328V53.3328H45.8665V50.1328H43.7332V54.3994C43.7332 54.9893 44.2099 55.4661 44.7998 55.4661H49.0664C49.6563 55.4661 50.133 54.9893 50.133 54.3994V50.1328H47.9999Z" fill="#BF1731"/>
<path d="M40.5334 49.0664H27.7334C27.1446 49.0664 26.6667 49.5432 26.6667 50.133V62.933C26.6667 63.5229 27.1446 63.9997 27.7334 63.9997H40.5334C41.1232 63.9997 41.6 63.5229 41.6 62.933V50.133C41.6 49.5432 41.1232 49.0664 40.5334 49.0664ZM39.4666 61.8664H28.8V51.1998H39.4666V61.8664Z" fill="#BF1731"/>
<path d="M35.2001 50.1328V53.3328H33.0667V50.1328H30.9333V54.3994C30.9333 54.9893 31.4112 55.4661 32 55.4661H36.2666C36.8565 55.4661 37.3332 54.9893 37.3332 54.3994V50.1328H35.2001Z" fill="#BF1731"/>
<path d="M53.3334 36.2666H40.5334C39.9435 36.2666 39.4668 36.7434 39.4668 37.3332V50.1332C39.4668 50.7231 39.9435 51.1998 40.5334 51.1998H53.3334C53.9233 51.1998 54.4 50.7231 54.4 50.1332V37.3332C54.4 36.7434 53.9233 36.2666 53.3334 36.2666ZM52.2667 49.0666H41.6V38.4H52.2667V49.0666Z" fill="#BF1731"/>
<path d="M47.9999 37.333V40.533H45.8665V37.333H43.7332V41.5996C43.7332 42.1895 44.2099 42.6663 44.7998 42.6663H49.0664C49.6563 42.6663 50.133 42.1895 50.133 41.5996V37.333H47.9999Z" fill="#BF1731"/>
<path d="M57.5999 31.9995H6.3999V34.1329H57.5999V31.9995Z" fill="#BF1731"/>
<path d="M57.5999 27.7329H6.3999V29.8663H57.5999V27.7329Z" fill="#BF1731"/>
<path d="M37.3333 14.9331H26.6667C26.078 14.9331 25.6001 15.411 25.6001 15.9997V20.2664C25.6001 20.8551 26.078 21.333 26.6667 21.333H37.3333C37.9232 21.333 38.4 20.8551 38.4 20.2664V15.9997C38.4 15.411 37.9232 14.9331 37.3333 14.9331ZM36.2666 19.1999H27.7332V17.0665H36.2666V19.1999Z" fill="#BF1731"/>
</g>
<defs>
<clipPath id="clip0_195_249">
<rect width="64" height="64" fill="white"/>
</clipPath>
</defs>
</svg>
