<svg width="64" height="64" viewBox="0 0 64 64" fill="none" xmlns="http://www.w3.org/2000/svg">
<path d="M23.1615 3.7888C25.5048 2.82523 28.5435 1.5705 29.915 1.00117C31.2866 0.431833 32.4895 -0.0184305 32.5892 0.000580574C32.6889 0.0195917 35.7076 1.32736 39.2975 2.90628C42.8873 4.4852 46.982 6.28025 48.3961 6.89661C50.8247 7.95523 50.9824 8.03928 51.2399 8.4175C51.3895 8.63763 51.9452 9.52715 52.4755 10.3937C52.9139 11.1101 53.6851 12.373 54.3429 13.45L54.7372 14.0958C55.4516 15.2655 57.154 18.0461 61.0058 24.3268L61.0085 58.4968H64V60.6981H61.0085V64L3.03683 63.95L2.9915 60.6981H0V58.4968H2.9915L2.99422 24.3268L12.7365 8.08531L15.8187 6.81256C17.5139 6.11315 20.8181 4.75236 23.1615 3.7888Z" fill="#BF1731"/>
<path fill-rule="evenodd" clip-rule="evenodd" d="M32.4533 2.36776C32.5276 2.36276 33.0996 2.58289 33.7224 2.85805C34.3461 3.13221 37.6902 4.60006 41.1558 6.11795C44.6214 7.63684 47.9665 9.1017 49.7224 9.86914L52.1537 13.8455C53.4917 16.0327 55.5812 19.4437 59.0087 25.027L59.0142 33.0817H4.98585L4.98857 25.027L14.0963 9.88215L16.4079 8.9306C17.6789 8.40729 21.4726 6.84838 24.8385 5.46757C28.2035 4.08576 31.2639 2.82503 31.6374 2.66593C32.0109 2.50684 32.3789 2.37176 32.4533 2.36776ZM58.9689 35.333L59.0142 61.7985L50.9915 61.7485V45.3389L42.017 45.2388L41.9717 44.1882H22.0283L21.983 45.2388L12.9632 45.2889L12.9713 61.7485L4.98585 61.7985L4.97044 48.6078C4.96228 41.3526 4.98948 35.3861 5.03118 35.349C5.07378 35.312 17.2265 35.293 58.9689 35.333ZM24.0227 46.3895H28.0113V48.5908H24.0227V46.3895ZM30.0057 46.3895H33.9943V48.5908H30.0057V46.3895ZM35.9823 46.3895H39.9774V48.5908L36.034 48.5408L35.9823 46.3895ZM15.0482 47.4901H22.0283V61.7985H15.0482V47.4901ZM41.9717 47.4901H48.9519V61.7985H41.9717V47.4901ZM24.0227 50.7921H28.0113V52.9934H24.0227V50.7921ZM30.0057 50.7921H33.9943V52.9934H30.0057V50.7921ZM35.9887 50.7921H39.9774V52.9934H35.9887V50.7921ZM24.0227 55.1946H28.0113V57.3959H24.0227V55.1946ZM30.0057 55.1946H33.9943V57.3959H30.0057V55.1946ZM35.9923 55.1906L39.932 55.2447L39.9774 57.3959H35.9887L35.9923 55.1906ZM24.0227 59.5972H28.0113V61.7985H24.0227V59.5972ZM30.0057 59.5972H33.9943V61.7985H30.0057V59.5972ZM35.9887 59.5972H39.9774V61.7985H35.9887V59.5972Z" fill="white"/>
<path d="M31.0029 7.86732V6.16633V4.46533H32.9973V7.86732H34.7197V10.0686H29.2806V7.86732H31.0029Z" fill="#BF1731"/>
<path d="M14.5044 27.5788V20.975V14.3711H23.0256V27.5788H14.5044Z" fill="#BF1731"/>
<path d="M27.996 21.042C27.9879 17.4459 28.0151 14.4742 28.0568 14.4382C28.0985 14.4011 29.8997 14.3711 35.9888 14.3711V27.5788H28.0114L27.996 21.042Z" fill="#BF1731"/>
<path d="M40.9746 27.5788L40.9755 20.974L40.9764 14.3691L48.9619 14.4212L48.9565 20.8749C48.9538 24.425 48.9519 27.3847 48.9519 27.4538C48.9519 27.5518 48.0935 27.5788 40.9746 27.5788Z" fill="#BF1731"/>
<path d="M13.0276 40.9367C13.0385 40.3863 13.0675 39.88 13.092 39.813C13.1274 39.7149 17.0208 39.6939 49.9944 39.736L50.0071 40.7365C50.0144 41.2869 49.9935 41.7922 49.9618 41.8602C49.9165 41.9573 45.9895 41.9783 13.0086 41.9372L13.0276 40.9367Z" fill="#BF1731"/>
<path d="M8.97461 49.6918V47.4905V45.2892H11.0596V47.3404C11.0596 48.4681 11.0397 49.4586 11.0143 49.5417C10.978 49.6628 10.7777 49.6918 8.97461 49.6918Z" fill="#BF1731"/>
<path d="M53.0086 49.5927C52.9959 49.5377 52.9977 48.5471 53.0122 47.3914L53.0385 45.2892H55.0256V49.6918H54.0284C53.4455 49.6918 53.0222 49.6508 53.0086 49.5927Z" fill="#BF1731"/>
<path d="M16.4985 19.8742V18.2232V16.5723H21.0311V19.8742H16.4985Z" fill="white"/>
<path d="M30.0056 19.8742V18.2232V16.5723H33.9943V19.8742H30.0056Z" fill="white"/>
<path d="M42.9688 19.8742V18.2232V16.5723H46.9575V19.8742H42.9688Z" fill="white"/>
<path d="M16.4985 25.3774L16.5003 23.7244L16.5022 22.0725L20.9858 22.1255L21.0311 25.3774H16.4985Z" fill="white"/>
<path d="M30.0056 25.3764V23.7254V22.0745H33.9943V25.3764H30.0056Z" fill="white"/>
<path d="M42.9534 23.7925C42.9452 22.921 42.9724 22.1785 43.0141 22.1415C43.0558 22.1045 43.9596 22.0745 46.9575 22.0745V25.3764H42.9688L42.9534 23.7925Z" fill="white"/>
</svg>
