<svg width="64" height="64" viewBox="0 0 64 64" fill="none" xmlns="http://www.w3.org/2000/svg">
<path d="M60.2492 21.9747H3.75096C3.21223 21.9747 2.77881 21.5412 2.77881 21.0025V14.4445C2.77881 14.0597 3.00564 13.7114 3.354 13.5574L31.6031 0.976177C31.8543 0.862759 32.1418 0.862759 32.393 0.976177L60.6421 13.5574C60.9945 13.7154 61.2173 14.0597 61.2173 14.4445V21.0025C61.2213 21.5412 60.7839 21.9747 60.2492 21.9747ZM4.72311 20.0304H59.273V15.0764L32.0001 2.92858L4.72311 15.0764V20.0304Z" fill="#BF1731"/>
<path d="M56.0081 26.1631H7.99193C7.45319 26.1631 7.01978 25.7296 7.01978 25.1909C7.01978 24.6522 7.45319 24.2188 7.99193 24.2188H56.0081C56.5469 24.2188 56.9803 24.6522 56.9803 25.1909C56.9803 25.7296 56.5469 26.1631 56.0081 26.1631Z" fill="#BF1731"/>
<path d="M56.0081 30.3471H7.99193C7.45319 30.3471 7.01978 29.9137 7.01978 29.375C7.01978 28.8362 7.45319 28.4028 7.99193 28.4028H56.0081C56.5469 28.4028 56.9803 28.8362 56.9803 29.375C56.9803 29.9137 56.5469 30.3471 56.0081 30.3471Z" fill="#BF1731"/>
<path d="M41.9241 47.8422H22.076C21.0633 47.8422 20.079 47.6356 19.1514 47.2306L15.7287 45.7278C15.2385 45.5131 15.0117 44.9379 15.2304 44.4478C15.4492 43.9577 16.0203 43.7308 16.5104 43.9495L19.9292 45.4483C20.6097 45.748 21.3307 45.8979 22.0719 45.8979H41.92C42.6613 45.8979 43.3823 45.748 44.0628 45.4483L47.4856 43.9455C47.9757 43.7308 48.5509 43.9536 48.7656 44.4437C48.9803 44.9338 48.7575 45.509 48.2674 45.7237L44.8446 47.2265C43.9211 47.6356 42.9368 47.8422 41.9241 47.8422Z" fill="#BF1731"/>
<path d="M48.7291 59.2163H15.2709C13.6223 59.2163 12.2815 57.8755 12.2815 56.2269V49.7014C12.2815 48.8143 12.5731 47.9353 13.1038 47.2264L19.524 38.6674C20.8931 36.8406 23.0724 35.751 25.3529 35.751H38.6511C40.9316 35.751 43.1109 36.8406 44.48 38.6674L50.8962 47.2305C51.4268 47.9393 51.7185 48.8183 51.7185 49.7054V56.231C51.7144 57.8755 50.3777 59.2163 48.7291 59.2163ZM25.3529 37.6953C23.68 37.6953 22.084 38.4933 21.0795 39.834L14.6633 48.3971C14.3838 48.7738 14.2258 49.2355 14.2258 49.7054V56.231C14.2258 56.8062 14.6957 57.276 15.2709 57.276H48.7291C49.3043 57.276 49.7742 56.8062 49.7742 56.231V49.7054C49.7742 49.2355 49.6202 48.7738 49.3367 48.3971L42.9205 39.834C41.9159 38.4973 40.32 37.6953 38.6471 37.6953H25.3529Z" fill="#BF1731"/>
<path d="M37.2819 55.2262H26.7179C25.8713 55.2262 25.1179 54.6591 24.887 53.845L24.4495 52.3098C24.2835 51.7305 24.3969 51.1189 24.7614 50.6369C25.126 50.1548 25.6809 49.8794 26.2845 49.8794H37.7275C38.331 49.8794 38.886 50.1548 39.2505 50.6369C39.6151 51.1189 39.7285 51.7265 39.5624 52.3098L39.125 53.845C38.8819 54.6591 38.1285 55.2262 37.2819 55.2262ZM26.7462 53.2819H37.2536L37.6708 51.8277H26.329L26.7462 53.2819Z" fill="#BF1731"/>
<path d="M46.3433 54.9633C46.3068 54.9633 46.2703 54.9633 46.2298 54.9592L43.7995 54.8377C42.5802 54.7769 41.6243 53.7724 41.6243 52.5531C41.6243 51.3339 42.5802 50.3293 43.7995 50.2686L46.2298 50.147C46.8536 50.1146 47.4693 50.3455 47.919 50.7749C48.3726 51.2043 48.6278 51.8078 48.6278 52.4316V52.6746C48.6278 53.2984 48.3686 53.902 47.919 54.3314C47.4977 54.7405 46.9265 54.9633 46.3433 54.9633ZM46.3473 52.0914C46.3433 52.0914 46.3352 52.0914 46.3311 52.0914L43.9007 52.2129C43.7184 52.221 43.5726 52.3708 43.5726 52.5572C43.5726 52.7395 43.7144 52.8893 43.9007 52.9015L46.3311 53.023C46.4607 53.0311 46.5458 52.9663 46.5863 52.9298C46.6268 52.8934 46.6916 52.8083 46.6916 52.6827V52.4397C46.6916 52.3101 46.6227 52.2291 46.5863 52.1926C46.5458 52.1521 46.4648 52.0914 46.3473 52.0914Z" fill="#BF1731"/>
<path d="M17.6568 54.9631C17.0735 54.9631 16.5023 54.7363 16.077 54.3312C15.6234 53.9018 15.3682 53.2983 15.3682 52.6745V52.4315C15.3682 51.8077 15.6274 51.2041 16.077 50.7748C16.5307 50.3454 17.1464 50.1185 17.7661 50.1469L20.1965 50.2684C21.4158 50.3292 22.3717 51.3337 22.3717 52.553C22.3717 53.7722 21.4158 54.7768 20.1965 54.8375L17.7661 54.9591C17.7297 54.9631 17.6932 54.9631 17.6568 54.9631ZM17.6527 52.0912C17.5353 52.0912 17.4542 52.1479 17.4178 52.1844C17.3773 52.2208 17.3125 52.3059 17.3125 52.4315V52.6745C17.3125 52.8041 17.3813 52.8851 17.4178 52.9216C17.4583 52.958 17.5434 53.0229 17.673 53.0148L20.1034 52.8932C20.2856 52.8851 20.4315 52.7353 20.4315 52.5489C20.4315 52.3626 20.2897 52.2168 20.1034 52.2046L17.673 52.0831C17.6649 52.0912 17.6608 52.0912 17.6527 52.0912Z" fill="#BF1731"/>
<path d="M19.2608 63.1088H17.8511C16.3524 63.1088 15.1372 61.8895 15.1372 60.3949V58.248C15.1372 57.7093 15.5706 57.2759 16.1094 57.2759H21.0066C21.5453 57.2759 21.9787 57.7093 21.9787 58.248V60.3949C21.9747 61.8895 20.7554 63.1088 19.2608 63.1088ZM17.0775 59.2161V60.3908C17.0775 60.8161 17.4218 61.1604 17.8471 61.1604H19.2567C19.682 61.1604 20.0263 60.8161 20.0263 60.3908V59.2161H17.0775Z" fill="#BF1731"/>
<path d="M46.1528 63.1088H44.7432C43.2445 63.1088 42.0293 61.8895 42.0293 60.3949V58.248C42.0293 57.7093 42.4627 57.2759 43.0014 57.2759H47.8987C48.4374 57.2759 48.8708 57.7093 48.8708 58.248V60.3949C48.8668 61.8895 47.6475 63.1088 46.1528 63.1088ZM43.9696 59.2161V60.3908C43.9696 60.8161 44.3139 61.1604 44.7392 61.1604H46.1488C46.5741 61.1604 46.9184 60.8161 46.9184 60.3908V59.2161H43.9696Z" fill="#BF1731"/>
<path d="M7.99197 63.1088H3.75096C3.21223 63.1088 2.77881 62.6753 2.77881 62.1366V21.0024C2.77881 20.4637 3.21223 20.0303 3.75096 20.0303C4.28969 20.0303 4.72311 20.4637 4.72311 21.0024V61.1645H7.01982V21.0024C7.01982 20.4637 7.45324 20.0303 7.99197 20.0303C8.53071 20.0303 8.96413 20.4637 8.96413 21.0024V62.1366C8.96413 62.6753 8.53071 63.1088 7.99197 63.1088Z" fill="#BF1731"/>
<path d="M60.2493 63.1088H56.0083C55.4696 63.1088 55.0361 62.6753 55.0361 62.1366V21.0024C55.0361 20.4637 55.4696 20.0303 56.0083 20.0303C56.547 20.0303 56.9804 20.4637 56.9804 21.0024V61.1645H59.2771V21.0024C59.2771 20.4637 59.7106 20.0303 60.2493 20.0303C60.788 20.0303 61.2215 20.4637 61.2215 21.0024V62.1366C61.2215 62.6753 60.784 63.1088 60.2493 63.1088Z" fill="#BF1731"/>
</svg>
