<svg width="64" height="64" viewBox="0 0 64 64" fill="none" xmlns="http://www.w3.org/2000/svg">
<path d="M23 50H7C6.73478 50 6.48043 49.8946 6.29289 49.7071C6.10536 49.5196 6 49.2652 6 49V19C6 11.832 15.42 6 27 6C38.58 6 48 11.832 48 19V42C48 42.2652 47.8946 42.5196 47.7071 42.7071C47.5196 42.8946 47.2652 43 47 43C46.7348 43 46.4804 42.8946 46.2929 42.7071C46.1054 42.5196 46 42.2652 46 42V19C46 12.935 37.477 8 27 8C16.523 8 8 12.935 8 19V48H23C23.2652 48 23.5196 48.1054 23.7071 48.2929C23.8946 48.4804 24 48.7348 24 49C24 49.2652 23.8946 49.5196 23.7071 49.7071C23.5196 49.8946 23.2652 50 23 50Z" fill="#BF1731"/>
<path d="M47 21H41C40.7348 21 40.4804 20.8946 40.2929 20.7071C40.1054 20.5196 40 20.2652 40 20V19C40 17.755 35.39 14 27 14C18.61 14 14 17.755 14 19V20C14 20.2652 13.8946 20.5196 13.7071 20.7071C13.5196 20.8946 13.2652 21 13 21H7C6.73478 21 6.48043 20.8946 6.29289 20.7071C6.10536 20.5196 6 20.2652 6 20C6 19.7348 6.10536 19.4804 6.29289 19.2929C6.48043 19.1054 6.73478 19 7 19H12C12 16.146 17.843 12 27 12C36.157 12 42 16.146 42 19H47C47.2652 19 47.5196 19.1054 47.7071 19.2929C47.8946 19.4804 48 19.7348 48 20C48 20.2652 47.8946 20.5196 47.7071 20.7071C47.5196 20.8946 47.2652 21 47 21Z" fill="#BF1731"/>
<path d="M23 50H13C12.7348 50 12.4804 49.8946 12.2929 49.7071C12.1054 49.5196 12 49.2652 12 49V28C12 27.7348 12.1054 27.4804 12.2929 27.2929C12.4804 27.1054 12.7348 27 13 27H41C41.2652 27 41.5196 27.1054 41.7071 27.2929C41.8946 27.4804 42 27.7348 42 28V37C42 37.2652 41.8946 37.5196 41.7071 37.7071C41.5196 37.8946 41.2652 38 41 38C40.7348 38 40.4804 37.8946 40.2929 37.7071C40.1054 37.5196 40 37.2652 40 37V29H14V48H23C23.2652 48 23.5196 48.1054 23.7071 48.2929C23.8946 48.4804 24 48.7348 24 49C24 49.2652 23.8946 49.5196 23.7071 49.7071C23.5196 49.8946 23.2652 50 23 50Z" fill="#BF1731"/>
<path d="M41 33H13C12.7348 33 12.4804 32.8946 12.2929 32.7071C12.1054 32.5196 12 32.2652 12 32V28C12 27.7348 12.1054 27.4804 12.2929 27.2929C12.4804 27.1054 12.7348 27 13 27H41C41.2652 27 41.5196 27.1054 41.7071 27.2929C41.8946 27.4804 42 27.7348 42 28V32C42 32.2652 41.8946 32.5196 41.7071 32.7071C41.5196 32.8946 41.2652 33 41 33ZM14 31H40V29H14V31Z" fill="#BF1731"/>
<path d="M23 50H3C2.73478 50 2.48043 49.8946 2.29289 49.7071C2.10536 49.5196 2 49.2652 2 49C2 48.7348 2.10536 48.4804 2.29289 48.2929C2.48043 48.1054 2.73478 48 3 48H23C23.2652 48 23.5196 48.1054 23.7071 48.2929C23.8946 48.4804 24 48.7348 24 49C24 49.2652 23.8946 49.5196 23.7071 49.7071C23.5196 49.8946 23.2652 50 23 50Z" fill="#BF1731"/>
<path d="M61 50H55C54.7348 50 54.4804 49.8946 54.2929 49.7071C54.1054 49.5196 54 49.2652 54 49C54 48.7348 54.1054 48.4804 54.2929 48.2929C54.4804 48.1054 54.7348 48 55 48H61C61.2652 48 61.5196 48.1054 61.7071 48.2929C61.8946 48.4804 62 48.7348 62 49C62 49.2652 61.8946 49.5196 61.7071 49.7071C61.5196 49.8946 61.2652 50 61 50Z" fill="#BF1731"/>
<path d="M18 55H6C5.73478 55 5.48043 54.8946 5.29289 54.7071C5.10536 54.5196 5 54.2652 5 54C5 53.7348 5.10536 53.4804 5.29289 53.2929C5.48043 53.1054 5.73478 53 6 53H18C18.2652 53 18.5196 53.1054 18.7071 53.2929C18.8946 53.4804 19 53.7348 19 54C19 54.2652 18.8946 54.5196 18.7071 54.7071C18.5196 54.8946 18.2652 55 18 55Z" fill="#BF1731"/>
<path d="M28 59H12C11.7348 59 11.4804 58.8946 11.2929 58.7071C11.1054 58.5196 11 58.2652 11 58C11 57.7348 11.1054 57.4804 11.2929 57.2929C11.4804 57.1054 11.7348 57 12 57H28C28.2652 57 28.5196 57.1054 28.7071 57.2929C28.8946 57.4804 29 57.7348 29 58C29 58.2652 28.8946 58.5196 28.7071 58.7071C28.5196 58.8946 28.2652 59 28 59Z" fill="#BF1731"/>
<path d="M58 59H39C38.7348 59 38.4804 58.8946 38.2929 58.7071C38.1054 58.5196 38 58.2652 38 58C38 57.7348 38.1054 57.4804 38.2929 57.2929C38.4804 57.1054 38.7348 57 39 57H58C58.2652 57 58.5196 57.1054 58.7071 57.2929C58.8946 57.4804 59 57.7348 59 58C59 58.2652 58.8946 58.5196 58.7071 58.7071C58.5196 58.8946 58.2652 59 58 59Z" fill="#BF1731"/>
<path d="M60 55H57C56.7348 55 56.4804 54.8946 56.2929 54.7071C56.1054 54.5196 56 54.2652 56 54C56 53.7348 56.1054 53.4804 56.2929 53.2929C56.4804 53.1054 56.7348 53 57 53H60C60.2652 53 60.5196 53.1054 60.7071 53.2929C60.8946 53.4804 61 53.7348 61 54C61 54.2652 60.8946 54.5196 60.7071 54.7071C60.5196 54.8946 60.2652 55 60 55Z" fill="#BF1731"/>
<path d="M32 46H24C23.4696 46 22.9609 45.7893 22.5858 45.4142C22.2107 45.0391 22 44.5304 22 44V38C22 37.4696 22.2107 36.9609 22.5858 36.5858C22.9609 36.2107 23.4696 36 24 36H32C32.5304 36 33.0391 36.2107 33.4142 36.5858C33.7893 36.9609 34 37.4696 34 38V44C34 44.5304 33.7893 45.0391 33.4142 45.4142C33.0391 45.7893 32.5304 46 32 46ZM24 38V44H32V38H24Z" fill="#BF1731"/>
<path d="M30 42H26C25.7348 42 25.4804 41.8946 25.2929 41.7071C25.1054 41.5196 25 41.2652 25 41V37C25 36.7348 25.1054 36.4804 25.2929 36.2929C25.4804 36.1054 25.7348 36 26 36H30C30.2652 36 30.5196 36.1054 30.7071 36.2929C30.8946 36.4804 31 36.7348 31 37V41C31 41.2652 30.8946 41.5196 30.7071 41.7071C30.5196 41.8946 30.2652 42 30 42ZM27 40H29V38H27V40Z" fill="#BF1731"/>
<path d="M42 46H34C33.4696 46 32.9609 45.7893 32.5858 45.4142C32.2107 45.0391 32 44.5304 32 44V38C32 37.4696 32.2107 36.9609 32.5858 36.5858C32.9609 36.2107 33.4696 36 34 36H42C42.5304 36 43.0391 36.2107 43.4142 36.5858C43.7893 36.9609 44 37.4696 44 38V44C44 44.5304 43.7893 45.0391 43.4142 45.4142C43.0391 45.7893 42.5304 46 42 46ZM34 38V44H42V38H34Z" fill="#BF1731"/>
<path d="M40 42H36C35.7348 42 35.4804 41.8946 35.2929 41.7071C35.1054 41.5196 35 41.2652 35 41V37C35 36.7348 35.1054 36.4804 35.2929 36.2929C35.4804 36.1054 35.7348 36 36 36H40C40.2652 36 40.5196 36.1054 40.7071 36.2929C40.8946 36.4804 41 36.7348 41 37V41C41 41.2652 40.8946 41.5196 40.7071 41.7071C40.5196 41.8946 40.2652 42 40 42ZM37 40H39V38H37V40Z" fill="#BF1731"/>
<path d="M46.4411 56H30.9411C29.27 56.0043 27.631 55.5405 26.2099 54.6612C24.7888 53.782 23.6422 52.5223 22.9001 51.025L20.1101 45.447C20.0341 45.2949 19.9981 45.1259 20.0056 44.956C20.0131 44.7861 20.0638 44.6209 20.1529 44.4761C20.242 44.3312 20.3665 44.2115 20.5148 44.1282C20.663 44.0449 20.8301 44.0008 21.0001 44H55.0001C55.1484 44 55.2949 44.0329 55.4289 44.0965C55.5629 44.16 55.681 44.2526 55.7748 44.3675C55.8687 44.4823 55.9357 44.6166 55.9712 44.7606C56.0067 44.9046 56.0098 45.0547 55.9801 45.2L55.2671 48.77C54.8537 50.8072 53.7496 52.6393 52.1415 53.9566C50.5334 55.2739 48.5199 55.9957 46.4411 56ZM22.6181 46L24.6841 50.131C25.2618 51.2964 26.1545 52.2767 27.2609 52.9605C28.3674 53.6444 29.6434 54.0045 30.9441 54H46.4441C48.0615 53.9966 49.6281 53.4348 50.879 52.4095C52.1299 51.3842 52.9883 49.9583 53.3091 48.373L53.7801 46H22.6181Z" fill="#BF1731"/>
<path d="M54.9999 46H44.9999C44.8189 46 44.6412 45.9509 44.4859 45.8579C44.3306 45.7648 44.2034 45.6314 44.118 45.4718C44.0326 45.3121 43.9922 45.1323 44.0009 44.9515C44.0097 44.7707 44.0674 44.5956 44.1679 44.445L48.1679 38.445C48.2593 38.3081 48.383 38.1958 48.5281 38.1182C48.6733 38.0406 48.8353 38 48.9999 38H54.9999C55.2651 38 55.5195 38.1054 55.707 38.2929C55.8946 38.4804 55.9999 38.7348 55.9999 39V45C55.9999 45.2652 55.8946 45.5196 55.707 45.7071C55.5195 45.8946 55.2651 46 54.9999 46ZM46.8679 44H53.9999V40H49.5349L46.8679 44Z" fill="#BF1731"/>
<path d="M52 40C51.7348 40 51.4804 39.8946 51.2929 39.7071C51.1054 39.5196 51 39.2652 51 39V33C51 32.7348 51.1054 32.4804 51.2929 32.2929C51.4804 32.1054 51.7348 32 52 32C52.2652 32 52.5196 32.1054 52.7071 32.2929C52.8946 32.4804 53 32.7348 53 33V39C53 39.2652 52.8946 39.5196 52.7071 39.7071C52.5196 39.8946 52.2652 40 52 40Z" fill="#BF1731"/>
<path d="M51 43C51.5523 43 52 42.5523 52 42C52 41.4477 51.5523 41 51 41C50.4477 41 50 41.4477 50 42C50 42.5523 50.4477 43 51 43Z" fill="#BF1731"/>
<path d="M33 22H21C20.7348 22 20.4804 21.8946 20.2929 21.7071C20.1054 21.5196 20 21.2652 20 21C20 20.7348 20.1054 20.4804 20.2929 20.2929C20.4804 20.1054 20.7348 20 21 20H33C33.2652 20 33.5196 20.1054 33.7071 20.2929C33.8946 20.4804 34 20.7348 34 21C34 21.2652 33.8946 21.5196 33.7071 21.7071C33.5196 21.8946 33.2652 22 33 22Z" fill="#BF1731"/>
<path d="M21 25C20.7348 25 20.4804 24.8946 20.2929 24.7071C20.1054 24.5196 20 24.2652 20 24V18C20 17.7348 20.1054 17.4804 20.2929 17.2929C20.4804 17.1054 20.7348 17 21 17C21.2652 17 21.5196 17.1054 21.7071 17.2929C21.8946 17.4804 22 17.7348 22 18V24C22 24.2652 21.8946 24.5196 21.7071 24.7071C21.5196 24.8946 21.2652 25 21 25Z" fill="#BF1731"/>
<path d="M33 25C32.7348 25 32.4804 24.8946 32.2929 24.7071C32.1054 24.5196 32 24.2652 32 24V18C32 17.7348 32.1054 17.4804 32.2929 17.2929C32.4804 17.1054 32.7348 17 33 17C33.2652 17 33.5196 17.1054 33.7071 17.2929C33.8946 17.4804 34 17.7348 34 18V24C34 24.2652 33.8946 24.5196 33.7071 24.7071C33.5196 24.8946 33.2652 25 33 25Z" fill="#BF1731"/>
</svg>
