<svg width="64" height="64" viewBox="0 0 64 64" fill="none" xmlns="http://www.w3.org/2000/svg">
<g clip-path="url(#clip0_195_218)">
<path d="M62.955 36.034C63.4711 36.034 63.8892 35.6159 63.8892 35.0998V20.1207C63.8892 19.6046 63.4711 19.1865 62.955 19.1865H56.8512V5.8067H59.1433C59.6594 5.8067 60.0776 5.38853 60.0776 4.87245V0.934254C60.0776 0.418172 59.6594 0 59.1433 0H16.1045C14.8966 0 14.8966 1.86851 16.1045 1.86851H58.2091V3.93819H6.40348V1.86851H11.3477C12.5556 1.86851 12.5556 0 11.3477 0H5.46922C4.95326 0 4.53497 0.418172 4.53497 0.934254V4.87245C4.53497 5.38853 4.95326 5.8067 5.46922 5.8067H7.14889V19.1865H1.04509C0.529136 19.1865 0.11084 19.6046 0.11084 20.1207V48.1374V63.0657C0.11084 63.5818 0.529136 64 1.04509 64H62.955C63.4711 64 63.8892 63.5818 63.8892 63.0657V48.1375V40.0802C63.8892 38.8723 62.0207 38.8723 62.0207 40.0802V47.2032H54.2699V29.2421C54.2518 28.7247 53.9467 28.1643 53.3357 28.1643H10.6644C10.0534 28.1643 9.74835 28.7247 9.73017 29.2421V47.2032H1.97935V21.055H8.08314H55.9169H62.0207V35.0998C62.0207 35.6159 62.4389 36.034 62.955 36.034ZM11.5987 37.8355H52.4014V39.8683H11.5987V37.8355ZM11.5987 33.9341H52.4014V35.967H11.5987V33.9341ZM11.5987 30.1764H52.4014V32.0656H11.5987V30.1764ZM25.9651 44.9688H27.4527V47.8027H25.9651V44.9688ZM25.0309 49.6712H28.387C28.9029 49.6712 29.3212 49.253 29.3212 48.7369V44.9688H31.0035V52.5051H22.4143V44.9688H24.0966V48.7369C24.0966 49.253 24.5149 49.6712 25.0309 49.6712ZM32.872 44.9688H34.5543V48.7369C34.5543 49.253 34.9725 49.6712 35.4885 49.6712H38.8445C39.3606 49.6712 39.7788 49.253 39.7788 48.7369V44.9688H41.461V52.5051H32.872V44.9688ZM36.4228 44.9688H37.9103V47.8027H36.4228V44.9688ZM41.6515 54.3736H42.3953H43.1392V57.2075H41.6515V54.3736ZM31.1938 54.3736H31.9376H32.6814V57.2075H31.1938V54.3736ZM21.4801 54.3736H22.2239V57.2075H20.7363V54.3736H21.4801ZM19.802 59.076H23.1581C23.6741 59.076 24.0924 58.6578 24.0924 58.1417V54.3736H25.7747V62.1315H17.1855V54.3736H18.8678V58.1417C18.8678 58.6578 19.2861 59.076 19.802 59.076ZM27.6432 54.3736H29.3253V58.1417C29.3253 58.6578 29.7436 59.076 30.2596 59.076H33.6157C34.1318 59.076 34.5499 58.6578 34.5499 58.1417V54.3736H36.2322V62.1315H27.6432V54.3736ZM38.1007 62.1315V54.3736H39.783V58.1417C39.783 58.6578 40.2012 59.076 40.7172 59.076H44.0733C44.5894 59.076 45.0076 58.6578 45.0076 58.1417V54.3736H46.6899V62.1315H38.1007ZM48.5584 62.1315V53.4393C48.5584 52.9232 48.1402 52.5051 47.6241 52.5051H43.3294V44.0345C43.3294 43.5184 42.9112 43.1002 42.3952 43.1002H21.4801C20.9641 43.1002 20.5458 43.5184 20.5458 44.0345V52.5051H16.2513C15.7353 52.5051 15.317 52.9232 15.317 53.4393V62.1315H11.5987V41.737H52.4014V62.1316H48.5584V62.1315ZM62.0207 49.0717V62.1316H54.2699V49.0717H62.0207ZM9.73017 49.0717V62.1316H1.97935V49.0717H9.73017ZM9.01739 19.1865V5.8067H54.9827V19.1865H9.01739Z" fill="#BF1731"/>
<path d="M19.2032 9.66699H13.6532C13.1373 9.66699 12.719 10.0852 12.719 10.6012V15.3972C12.719 15.9133 13.1373 16.3315 13.6532 16.3315H19.2032C19.7192 16.3315 20.1375 15.9133 20.1375 15.3972V10.6012C20.1375 10.0853 19.7192 9.66699 19.2032 9.66699ZM18.269 14.463H14.5875V11.5355H18.269V14.463Z" fill="#BF1731"/>
<path d="M29.5843 9.66699H24.0344C23.5184 9.66699 23.1001 10.0852 23.1001 10.6012V15.3972C23.1001 15.9133 23.5184 16.3315 24.0344 16.3315H29.5843C30.1003 16.3315 30.5186 15.9133 30.5186 15.3972V10.6012C30.5186 10.0853 30.1003 9.66699 29.5843 9.66699ZM28.6501 14.463H24.9686V11.5355H28.6501V14.463Z" fill="#BF1731"/>
<path d="M39.9655 9.66699H34.4155C33.8994 9.66699 33.4812 10.0852 33.4812 10.6012V15.3972C33.4812 15.9133 33.8994 16.3315 34.4155 16.3315H39.9655C40.4816 16.3315 40.8998 15.9133 40.8998 15.3972V10.6012C40.8998 10.0853 40.4816 9.66699 39.9655 9.66699ZM39.0313 14.463H35.3497V11.5355H39.0313V14.463Z" fill="#BF1731"/>
<path d="M50.3469 9.66699H44.7968C44.2807 9.66699 43.8625 10.0852 43.8625 10.6012V15.3972C43.8625 15.9133 44.2807 16.3315 44.7968 16.3315H50.3469C50.863 16.3315 51.2812 15.9133 51.2812 15.3972V10.6012C51.2812 10.0853 50.8629 9.66699 50.3469 9.66699ZM49.4126 14.463H45.7311V11.5355H49.4126V14.463Z" fill="#BF1731"/>
</g>
<defs>
<clipPath id="clip0_195_218">
<rect width="64" height="64" fill="white"/>
</clipPath>
</defs>
</svg>
