<svg width="64" height="64" viewBox="0 0 64 64" fill="none" xmlns="http://www.w3.org/2000/svg">
<g clip-path="url(#clip0_195_228)">
<path d="M24.9569 58.8638C24.9569 59.4158 24.5184 59.8683 23.9664 59.8683C23.4144 59.8683 22.9619 59.4158 22.9619 58.8638V46.2838C22.9619 45.4353 23.3294 44.6708 23.9239 44.1193C24.5044 43.5818 25.2829 43.2563 26.1459 43.2563H37.8479C38.7109 43.2563 39.5034 43.5813 40.0689 44.1193C40.6629 44.6713 41.0319 45.4353 41.0319 46.2838V58.8638C41.0319 59.4158 40.5929 59.8683 40.0409 59.8683C39.4889 59.8683 39.0364 59.4158 39.0364 58.8638V46.2838C39.0364 46.0153 38.9229 45.7603 38.7249 45.5768C38.4989 45.3788 38.2014 45.2513 37.8479 45.2513H32.9939V58.8643C32.9939 59.4163 32.5559 59.8688 32.0039 59.8688C31.4524 59.8688 30.9994 59.4163 30.9994 58.8643V45.2508H26.1459C25.8064 45.2508 25.5089 45.3788 25.2829 45.5763C25.0849 45.7598 24.9574 46.0148 24.9574 46.2833L24.9569 58.8638Z" fill="#BF1731"/>
<path d="M22.1414 29.8422H28.6784C29.2304 29.8422 29.6689 30.2812 29.6689 30.8327V36.9177C29.6689 37.4697 29.2304 37.9072 28.6784 37.9072H22.1414C21.5894 37.9072 21.1509 37.4692 21.1509 36.9177V30.8327C21.1504 30.2812 21.5894 29.8422 22.1414 29.8422ZM22.1414 17.7437H28.6784C29.2304 17.7437 29.6689 18.1827 29.6689 18.7342V24.8187C29.6689 25.3707 29.2304 25.8092 28.6784 25.8092H22.1414C21.5894 25.8092 21.1509 25.3702 21.1509 24.8187V18.7347C21.1504 18.1827 21.5894 17.7437 22.1414 17.7437ZM27.6739 19.7397H23.1459V23.8142H27.6739V19.7397ZM38.5974 23.8142C39.1494 23.8142 39.5874 24.2672 39.5874 24.8192C39.5874 25.3712 39.1489 25.8097 38.5974 25.8097H35.3289C34.7769 25.8097 34.3239 25.3707 34.3239 24.8192V18.7347C34.3239 18.1827 34.7764 17.7442 35.3289 17.7442C35.8809 17.7442 36.3194 18.1832 36.3194 18.7347V23.8142H38.5974ZM35.3289 29.8422H41.8519C42.4039 29.8422 42.8564 30.2812 42.8564 30.8327V36.9177C42.8564 37.4697 42.4039 37.9072 41.8519 37.9072H35.3289C34.7769 37.9072 34.3239 37.4692 34.3239 36.9177V30.8327C34.3239 30.2812 34.7769 29.8422 35.3289 29.8422ZM40.8619 31.8377H36.3199V35.9127H40.8619V31.8377ZM27.6739 31.8377H23.1459V35.9127H27.6739V31.8377Z" fill="#BF1731"/>
<path d="M48.8134 30.649C48.5309 31.116 47.9229 31.2855 47.4554 31.0025C47.2994 30.9035 47.1724 30.7765 47.0874 30.635L38.5124 16.1025C38.0734 15.3525 37.7059 14.3905 37.4799 13.5415C37.2529 12.664 37.1399 11.759 37.1399 10.8245C37.1399 7.8385 38.3429 5.1365 40.3094 3.169C42.2624 1.217 44.9649 0 47.9649 0C50.9504 0 53.6529 1.217 55.6199 3.1695C57.5724 5.137 58.7899 7.839 58.7899 10.825C58.7899 11.759 58.6624 12.6645 58.4364 13.542C58.2094 14.448 57.8554 15.2965 57.4174 16.089L48.8134 30.649ZM47.9649 28.1865L55.6904 15.0975C56.0444 14.461 56.3274 13.7675 56.5114 13.046C56.6949 12.338 56.7939 11.6025 56.7939 10.8245C56.7939 8.3905 55.8044 6.1835 54.2049 4.5845C52.6059 2.986 50.3984 1.995 47.9649 1.995C45.5169 1.995 43.3094 2.9855 41.7109 4.5845C40.1254 6.1835 39.1354 8.3905 39.1354 10.8245C39.1354 11.603 39.2339 12.338 39.4044 13.046C39.5879 13.753 39.8709 14.4325 40.2104 15.069L47.9649 28.1865Z" fill="#BF1731"/>
<path d="M47.9649 5.05127C49.5499 5.05127 50.9929 5.70277 52.0394 6.74927C53.0869 7.78227 53.7379 9.22527 53.7379 10.8243C53.7379 12.4228 53.0864 13.8668 52.0394 14.9138C50.9924 15.9468 49.5499 16.5973 47.9649 16.5973C46.3659 16.5973 44.9224 15.9468 43.8754 14.9138C42.8284 13.8668 42.1919 12.4233 42.1919 10.8243C42.1919 9.22527 42.8284 7.78227 43.8754 6.74927C44.9224 5.70227 46.3654 5.05127 47.9649 5.05127ZM50.6249 8.15027C49.9454 7.47127 48.9979 7.04677 47.9649 7.04677C46.9179 7.04677 45.9694 7.47127 45.2904 8.15027C44.6109 8.84377 44.1869 9.77727 44.1869 10.8248C44.1869 11.8718 44.6109 12.8198 45.2904 13.4993C45.9689 14.1783 46.9179 14.6028 47.9649 14.6028C48.9979 14.6028 49.9454 14.1783 50.6249 13.4993C51.3179 12.8203 51.7424 11.8718 51.7424 10.8248C51.7424 9.77727 51.3179 8.84377 50.6249 8.15027Z" fill="#BF1731"/>
<path d="M52.5769 48.6049C52.0249 48.6049 51.5874 48.1524 51.5874 47.6004C51.5874 47.0484 52.0254 46.6094 52.5769 46.6094H56.1994C57.4449 46.6094 58.5489 47.3314 59.0299 48.4774L63.7134 59.8824C63.9114 60.3634 63.9819 60.8449 63.9254 61.3259C63.8264 62.3024 63.1749 63.2074 62.3119 63.6604C61.8734 63.8869 61.3924 64.0004 60.8834 64.0004H3.12389C2.61439 64.0004 2.13339 63.8869 1.69489 63.6604C0.817393 63.2074 0.180893 62.3024 0.0678933 61.3259C0.0253933 60.8449 0.0958933 60.3634 0.279893 59.8824L4.97789 48.4774C5.45889 47.3314 6.56239 46.6094 7.80789 46.6094H11.4019C11.9539 46.6094 12.3924 47.0489 12.3924 47.6004C12.3924 48.1519 11.9539 48.6049 11.4019 48.6049H7.80789C7.36939 48.6049 6.98689 48.8169 6.81739 49.2414L2.13389 60.6459C2.06289 60.8024 2.03489 60.9574 2.04889 61.1134C2.09139 61.4389 2.31789 61.7359 2.60089 61.8919C2.75639 61.9629 2.92589 62.0054 3.12439 62.0054H60.8844C61.0824 62.0054 61.2519 61.9629 61.3939 61.8919C61.6914 61.7359 61.9174 61.4394 61.9459 61.1134C61.9599 60.9574 61.9459 60.8024 61.8749 60.6459L57.1914 49.2414C57.0214 48.8164 56.6394 48.6049 56.2009 48.6049H52.5769Z" fill="#BF1731"/>
<path d="M46.9605 34.936C46.9605 34.384 47.413 33.931 47.965 33.931C48.517 33.931 48.9555 34.384 48.9555 34.936V58.8635C48.9555 59.4155 48.5165 59.868 47.965 59.868H16.0425C15.4905 59.868 15.052 59.4155 15.052 58.8635V15.1265C15.052 14.2775 15.42 13.513 16.0145 12.9615C16.5805 12.4235 17.373 12.084 18.236 12.084H33.9845C34.5365 12.084 34.975 12.5365 34.975 13.089C34.975 13.641 34.536 14.0935 33.9845 14.0935H18.236C17.882 14.0935 17.585 14.207 17.359 14.419C17.161 14.6025 17.0475 14.8575 17.0475 15.1265V57.8725H46.961L46.9605 34.936Z" fill="#BF1731"/>
</g>
<defs>
<clipPath id="clip0_195_228">
<rect width="64" height="64" fill="white"/>
</clipPath>
</defs>
</svg>
