<svg width="64" height="64" viewBox="0 0 64 64" fill="none" xmlns="http://www.w3.org/2000/svg">
<path d="M59.9375 55.8511H56.2539V25.8219H58.9151C60.1213 25.8219 61.1026 24.8405 61.1026 23.6344V8.75975C61.1026 7.55363 60.1213 6.57225 58.9151 6.57225H56.2539V3.4375C56.2539 2.23137 55.2725 1.25 54.0664 1.25H9.93363C8.7275 1.25 7.74613 2.23137 7.74613 3.4375V6.57225H5.08488C3.87875 6.57225 2.89738 7.55363 2.89738 8.75975V23.6344C2.89738 24.8405 3.87875 25.8219 5.08488 25.8219H7.74625V32.1533C7.74625 32.671 8.166 33.0908 8.68375 33.0908C9.2015 33.0908 9.62125 32.671 9.62125 32.1533V25.8219H54.379V41.7938H50.9884C50.4705 41.7938 50.0509 42.2135 50.0509 42.7313C50.0509 43.249 50.4705 43.6688 50.9884 43.6688H54.379V50.1247H43.1219V43.6688H46.8739C47.3918 43.6688 47.8114 43.249 47.8114 42.7313C47.8114 42.2135 47.3918 41.7938 46.8739 41.7938H43.1219V37.9535H44.612C45.1205 37.9535 45.5986 37.705 45.8908 37.2889C46.183 36.8727 46.2542 36.3387 46.0815 35.8602L44.1821 30.6009C43.8701 29.7369 43.0434 29.1564 42.1246 29.1564H21.8754C20.9568 29.1564 20.13 29.7368 19.818 30.6009L17.9186 35.8602C17.7459 36.3386 17.8171 36.8726 18.1092 37.2887C18.4015 37.705 18.8796 37.9535 19.3881 37.9535H20.8783V41.7938H9.62113V36.2389C9.62113 35.7211 9.20138 35.3014 8.68363 35.3014C8.16588 35.3014 7.74613 35.7211 7.74613 36.2389V55.851H4.0625C1.8225 55.851 0 57.6735 0 59.9135V61.1875C0 62.0491 0.700875 62.75 1.5625 62.75H62.4375C63.2991 62.75 64 62.0491 64 61.1875V59.9136C64 57.6736 62.1776 55.8511 59.9375 55.8511ZM4.77238 23.6344V8.75975C4.77238 8.5875 4.91263 8.44725 5.08488 8.44725H46.5144C47.0322 8.44725 47.4519 8.0275 47.4519 7.50975C47.4519 6.992 47.0322 6.57225 46.5144 6.57225H9.62113V3.4375C9.62113 3.26525 9.76138 3.125 9.93363 3.125H54.0664C54.2388 3.125 54.3789 3.26525 54.3789 3.4375V6.57225H50.6001C50.0822 6.57225 49.6626 6.992 49.6626 7.50975C49.6626 8.0275 50.0822 8.44725 50.6001 8.44725H58.9151C59.0875 8.44725 59.2276 8.5875 59.2276 8.75975V23.6344C59.2276 23.8066 59.0875 23.9469 58.9151 23.9469H5.08488C4.9125 23.9469 4.77238 23.8067 4.77238 23.6344ZM54.3789 51.9999V55.8511H43.1217V51.9999H54.3789ZM41.2469 55.8511H32.9375V37.9535H41.2469V55.8511ZM34.788 31.0315L36.6109 36.0786H27.3892L29.212 31.0315H34.788ZM42.4186 31.2377L44.1669 36.0785H38.6044L36.7815 31.0314H42.1246C42.2559 31.0315 42.374 31.1144 42.4186 31.2377ZM21.5815 31.2377C21.626 31.1144 21.7441 31.0314 21.8754 31.0314H27.2184L25.3956 36.0785H19.8333L21.5815 31.2377ZM31.0625 37.9535V55.8511H22.7533V37.9535H31.0625ZM20.8783 43.6689V50.1249H9.62113V43.6689H20.8783ZM9.62113 51.9999H20.8783V55.8511H9.62113V51.9999ZM62.125 60.875H1.875V59.9136C1.875 58.7075 2.85637 57.7261 4.0625 57.7261H59.9375C61.1436 57.7261 62.125 58.7075 62.125 59.9136V60.875Z" fill="#BF1731"/>
<path d="M28.9601 10.1636C28.4424 10.1636 28.0226 10.5833 28.0226 11.1011V15.0851H22.8442V11.1011C22.8442 10.5833 22.4245 10.1636 21.9067 10.1636C21.389 10.1636 20.9692 10.5833 20.9692 11.1011V21.2937C20.9692 21.8115 21.389 22.2312 21.9067 22.2312C22.4245 22.2312 22.8442 21.8115 22.8442 21.2937V16.9601H28.0226V21.2937C28.0226 21.8115 28.4424 22.2312 28.9601 22.2312C29.4779 22.2312 29.8976 21.8115 29.8976 21.2937V11.1011C29.8976 10.5833 29.4779 10.1636 28.9601 10.1636Z" fill="#BF1731"/>
<path d="M16.1168 15.3981C14.8101 14.9161 13.5974 14.3899 13.2859 14.253C12.9708 14.0206 12.8179 13.6504 12.8754 13.2499C12.9483 12.7421 13.3396 12.3342 13.9222 12.1587C15.5454 11.6697 17.0144 12.8502 17.0379 12.8696C17.4342 13.1994 18.0231 13.1472 18.3552 12.7521C18.6883 12.3557 18.6371 11.7644 18.2408 11.4312C18.1503 11.3551 15.9932 9.57674 13.3814 10.3635C12.1012 10.7491 11.1962 11.753 11.0194 12.9834C10.8548 14.1297 11.3513 15.2322 12.3151 15.8606C12.3566 15.8876 12.3999 15.9112 12.4452 15.9314C12.5038 15.9576 13.8976 16.5779 15.4679 17.1572C16.5806 17.5676 17.1459 18.21 17.0192 18.9199C16.8932 19.6259 16.0687 20.3561 14.9073 20.3561C13.8008 20.3561 12.7327 19.9064 12.0502 19.1531C11.7026 18.7695 11.1097 18.7401 10.7259 19.088C10.3423 19.4356 10.3131 20.0286 10.6608 20.4122C11.6929 21.5511 13.2804 22.2311 14.9074 22.2311C16.8602 22.2311 18.5616 20.9492 18.8651 19.2494C19.0948 17.9624 18.4934 16.2747 16.1168 15.3981Z" fill="#BF1731"/>
<path d="M49.7118 10.1636H46.8738C46.3629 10.1636 45.9363 10.5902 45.9363 11.1011V21.2937C45.9363 21.8115 46.3559 22.2312 46.8738 22.2312C47.3917 22.2312 47.8113 21.8115 47.8113 21.2937V17.7987C48.4552 17.7952 49.2777 17.7913 49.7118 17.7913C51.8458 17.7913 53.582 16.0804 53.582 13.9774C53.582 11.8744 51.8459 10.1636 49.7118 10.1636ZM49.7118 15.9162C49.2797 15.9162 48.4683 15.9201 47.8258 15.9236C47.8223 15.2623 47.8183 14.4187 47.8183 13.9774C47.8183 13.6038 47.8159 12.7272 47.814 12.0386H49.7118C50.7933 12.0386 51.707 12.9264 51.707 13.9774C51.707 15.0284 50.7934 15.9162 49.7118 15.9162Z" fill="#BF1731"/>
<path d="M37.8452 10.1636C34.5182 10.1636 31.8113 12.8703 31.8113 16.1973C31.8113 19.5244 34.518 22.2312 37.8452 22.2312C41.1722 22.2312 43.8789 19.5244 43.8789 16.1973C43.8788 12.8702 41.1722 10.1636 37.8452 10.1636ZM37.8452 20.3561C35.5519 20.3561 33.6863 18.4904 33.6863 16.1972C33.6863 13.9041 35.5519 12.0384 37.8452 12.0384C40.1383 12.0384 42.0039 13.9041 42.0039 16.1972C42.0038 18.4904 40.1382 20.3561 37.8452 20.3561Z" fill="#BF1731"/>
</svg>
