<svg width="64" height="64" viewBox="0 0 64 64" fill="none" xmlns="http://www.w3.org/2000/svg">
<path d="M46.5091 39.4338C48.3711 37.5728 49.0981 34.9318 48.4551 32.3678C48.3441 31.9338 48.0071 31.5898 47.5731 31.4708C47.1331 31.3508 46.6621 31.4748 46.3391 31.7958L42.7401 35.3948L40.0411 32.6958L43.6411 29.0968C43.9631 28.7748 44.0881 28.3018 43.9651 27.8628C43.8451 27.4288 43.5001 27.0908 43.0651 26.9818C40.5071 26.3378 37.8631 27.0658 36.0011 28.9278C34.1071 30.8218 33.3811 33.6058 34.0921 36.1818L30.1121 40.1618L24.2441 34.2938L25.3951 33.1428C25.7561 32.7818 25.9361 32.2838 25.8901 31.7748C25.8441 31.2668 25.5751 30.8098 25.1541 30.5208L20.3211 27.2038C19.6401 26.7368 18.7241 26.8198 18.1421 27.4048L15.9811 29.5658C15.3961 30.1488 15.3111 31.0648 15.7791 31.7448L19.0971 36.5788C19.3861 36.9998 19.8421 37.2678 20.3511 37.3148C20.4041 37.3198 20.4571 37.3228 20.5091 37.3228C20.9611 37.3228 21.3951 37.1448 21.7181 36.8218L22.8741 35.6648L28.7421 41.5328L22.7801 47.4948L22.7931 47.5088C20.7471 47.1418 18.6471 47.7998 17.1801 49.2668C15.9641 50.4828 15.3031 52.0988 15.3171 53.8168C15.3321 55.5348 16.0211 57.1388 17.2571 58.3338C18.4321 59.4688 19.9921 60.0898 21.6631 60.0898C21.7091 60.0898 21.7571 60.0898 21.8031 60.0888C23.5291 60.0538 25.1171 59.3628 26.2771 58.1458C27.6671 56.6888 28.2841 54.6308 27.9411 52.6568L31.7591 48.8308L42.1051 59.1758C42.6551 59.7258 43.3761 59.9998 44.0981 59.9998C44.8201 59.9998 45.5421 59.7248 46.0911 59.1758L47.7491 57.5178C48.8481 56.4188 48.8481 54.6298 47.7491 53.5298L37.4001 43.1768L39.2451 41.3268C41.8371 42.0548 44.6161 41.3268 46.5091 39.4338ZM20.5421 35.2578L17.4841 30.8028L19.3801 28.9068L23.8351 31.9638L22.1921 33.6068L22.1911 33.6078L22.1901 33.6088L20.5421 35.2578ZM46.3821 54.8988C46.7251 55.2428 46.7251 55.8018 46.3821 56.1468L44.7241 57.8048C44.3801 58.1478 43.8211 58.1478 43.4771 57.8048L33.1301 47.4568L36.0321 44.5478L46.3821 54.8988ZM35.0781 42.7808C35.0391 42.8128 34.9971 42.8408 34.9601 42.8768L31.4551 46.3818C31.4181 46.4188 31.3891 46.4608 31.3571 46.5008L26.5731 51.2848C26.1201 51.7388 25.9151 52.3728 26.0231 52.9808C26.2701 54.3648 25.8421 55.7948 24.8771 56.8068C24.0761 57.6478 22.9711 58.1248 21.7651 58.1488C20.5311 58.1678 19.4381 57.7438 18.6061 56.9378C17.7461 56.1068 17.2661 54.9918 17.2561 53.7978C17.2471 52.6028 17.7061 51.4788 18.5511 50.6338C19.3841 49.8008 20.5111 49.3438 21.6741 49.3438C21.9341 49.3438 22.1951 49.3668 22.4561 49.4138C23.0661 49.5218 23.6951 49.3168 24.1491 48.8628C24.1501 48.8628 24.1501 48.8628 24.1501 48.8618L30.7921 42.2198C30.7941 42.2178 30.7961 42.2178 30.7981 42.2158C30.8001 42.2138 30.8001 42.2118 30.8021 42.2098L35.4621 37.5498C35.9631 37.0488 36.1591 36.3268 35.9741 35.6658C35.4371 33.7538 35.9721 31.6958 37.3711 30.2958C38.4341 29.2328 39.7941 28.6758 41.3061 28.6898L38.5071 31.4888C37.8431 32.1548 37.8431 33.2358 38.5081 33.9008L41.5331 36.9258C42.1781 37.5708 43.3031 37.5708 43.9461 36.9258L46.7441 34.1278C46.7641 35.5888 46.2021 36.9978 45.1381 38.0618C43.7371 39.4608 41.6811 39.9958 39.7681 39.4598C39.1051 39.2758 38.3851 39.4698 37.8841 39.9718L35.0781 42.7808Z" fill="#BF1731"/>
<path d="M62.619 18.963C62.616 18.858 62.603 18.754 62.566 18.653L56.903 3.215C56.416 1.89 55.14 1 53.73 1H10.27C8.86 1 7.584 1.89 7.097 3.216L1.434 18.653C1.397 18.754 1.384 18.859 1.381 18.963C1.381 18.973 1.375 18.981 1.375 18.991V20.647C1.375 22.412 2.166 24.067 3.5 25.178V58.94C3.5 61.179 5.322 63 7.56 63H56.44C58.678 63 60.499 61.179 60.499 58.941V25.178C61.834 24.064 62.624 22.411 62.624 20.647V18.991C62.624 18.981 62.619 18.973 62.619 18.963ZM49.085 23.919C47.785 24.843 45.899 24.85 44.561 23.912C43.492 23.174 42.854 21.953 42.854 20.647V19.96H50.802V20.647C50.802 21.953 50.164 23.174 49.085 23.919ZM39.204 23.916C37.874 24.849 36.006 24.845 34.675 23.912C33.606 23.174 32.968 21.953 32.968 20.647V19.96H40.916V20.647C40.916 21.953 40.279 23.174 39.204 23.916ZM29.319 23.916C28 24.842 26.133 24.853 24.79 23.912C23.721 23.174 23.083 21.953 23.083 20.647V19.96H31.031V20.647C31.031 21.953 30.394 23.174 29.319 23.916ZM19.434 23.916C18.109 24.846 16.227 24.85 14.905 23.912C13.836 23.174 13.198 21.953 13.198 20.647V19.96H21.146V20.647C21.146 21.953 20.508 23.174 19.434 23.916ZM23.02 2.938L21.678 18.018H13.879L17.124 2.938H23.02ZM46.877 2.938L50.122 18.018H42.323L40.98 2.938H46.877ZM40.377 18.017H33.244V2.938H39.035L40.377 18.017ZM31.307 18.017H23.623L24.965 2.937H31.306L31.307 18.017ZM55.084 3.883L60.269 18.017H52.103L48.858 2.937H53.729C54.332 2.938 54.876 3.318 55.084 3.883ZM8.916 3.884C9.124 3.318 9.668 2.938 10.271 2.938H15.142L11.897 18.018H3.73L8.916 3.884ZM3.313 20.647V19.96H11.261V20.647C11.261 21.953 10.623 23.174 9.549 23.916C8.561 24.61 7.259 24.788 6.109 24.44C5.724 24.323 5.356 24.148 5.021 23.912C3.951 23.174 3.313 21.953 3.313 20.647ZM58.562 58.941C58.562 60.111 57.61 61.063 56.44 61.063H7.56C6.39 61.063 5.438 60.111 5.438 58.941V26.269C5.452 26.274 5.467 26.276 5.481 26.28C5.538 26.298 5.597 26.309 5.654 26.326C5.849 26.382 6.046 26.429 6.246 26.464C6.355 26.483 6.465 26.497 6.575 26.51C6.722 26.527 6.868 26.538 7.016 26.543C7.105 26.547 7.191 26.563 7.281 26.563C7.327 26.563 7.37 26.554 7.416 26.553C7.52 26.55 7.624 26.538 7.728 26.529C8.025 26.507 8.317 26.463 8.604 26.398C8.69 26.378 8.776 26.362 8.861 26.338C9.008 26.297 9.152 26.249 9.295 26.197C9.417 26.154 9.536 26.105 9.654 26.053C9.764 26.004 9.875 25.958 9.982 25.903C10.214 25.785 10.44 25.655 10.654 25.505C10.937 25.31 11.191 25.085 11.431 24.848C11.483 24.797 11.535 24.747 11.584 24.694C11.81 24.454 12.018 24.2 12.199 23.927C12.207 23.915 12.218 23.905 12.226 23.893C12.235 23.906 12.247 23.916 12.255 23.929C12.436 24.2 12.642 24.452 12.866 24.691C12.915 24.743 12.966 24.793 13.018 24.844C13.257 25.08 13.51 25.304 13.791 25.498C14.771 26.194 15.938 26.562 17.165 26.562C18.385 26.562 19.554 26.195 20.539 25.505C20.821 25.31 21.075 25.086 21.315 24.849C21.368 24.797 21.42 24.746 21.471 24.692C21.696 24.453 21.902 24.2 22.083 23.93C22.092 23.917 22.104 23.906 22.113 23.893C22.121 23.905 22.132 23.915 22.14 23.926C22.322 24.199 22.529 24.454 22.756 24.694C22.805 24.746 22.855 24.795 22.906 24.845C23.146 25.082 23.4 25.307 23.683 25.502C24.674 26.196 25.838 26.563 27.052 26.563C28.272 26.563 29.441 26.196 30.426 25.506C30.708 25.311 30.962 25.087 31.202 24.85C31.255 24.798 31.307 24.747 31.358 24.693C31.583 24.454 31.789 24.201 31.97 23.931C31.979 23.918 31.991 23.907 32 23.894C32.008 23.906 32.019 23.916 32.027 23.927C32.209 24.2 32.416 24.455 32.643 24.695C32.692 24.747 32.742 24.796 32.793 24.846C33.033 25.083 33.287 25.308 33.57 25.503C34.561 26.197 35.729 26.564 36.949 26.564C38.163 26.564 39.327 26.197 40.312 25.507C40.594 25.312 40.848 25.088 41.088 24.851C41.141 24.799 41.193 24.748 41.244 24.694C41.469 24.455 41.675 24.202 41.856 23.932C41.865 23.919 41.877 23.908 41.886 23.895C41.894 23.907 41.905 23.917 41.913 23.928C42.095 24.201 42.302 24.456 42.529 24.696C42.578 24.748 42.628 24.797 42.679 24.847C42.919 25.084 43.173 25.309 43.456 25.504C44.447 26.198 45.615 26.565 46.835 26.565C48.062 26.565 49.228 26.197 50.198 25.508C50.48 25.313 50.734 25.089 50.974 24.852C51.027 24.8 51.079 24.749 51.13 24.695C51.355 24.456 51.561 24.203 51.742 23.933C51.751 23.92 51.763 23.909 51.772 23.896C51.78 23.908 51.791 23.918 51.799 23.929C51.981 24.202 52.188 24.457 52.415 24.697C52.464 24.749 52.514 24.798 52.565 24.848C52.805 25.085 53.059 25.31 53.342 25.505C53.558 25.656 53.786 25.787 54.019 25.906C54.124 25.96 54.231 26.005 54.339 26.053C54.463 26.107 54.587 26.158 54.713 26.203C54.852 26.253 54.992 26.3 55.134 26.34C55.228 26.366 55.324 26.385 55.42 26.406C55.682 26.465 55.947 26.505 56.218 26.528C56.344 26.539 56.469 26.553 56.594 26.556C56.637 26.557 56.678 26.566 56.721 26.566C56.806 26.566 56.888 26.551 56.973 26.547C57.128 26.541 57.282 26.53 57.436 26.512C57.542 26.499 57.648 26.486 57.753 26.467C57.953 26.432 58.15 26.385 58.345 26.33C58.404 26.313 58.465 26.302 58.524 26.283C58.538 26.279 58.552 26.276 58.566 26.272V58.941H58.562ZM60.687 20.647C60.687 21.953 60.049 23.174 58.975 23.916C57.645 24.849 55.776 24.845 54.446 23.912C53.377 23.174 52.739 21.953 52.739 20.647V19.96H60.687V20.647Z" fill="#BF1731"/>
</svg>
