<svg width="64" height="64" viewBox="0 0 64 64" fill="none" xmlns="http://www.w3.org/2000/svg">
<g clip-path="url(#clip0_195_319)">
<path d="M63.556 24.2364L32.431 6.59988C32.2997 6.52514 32.1511 6.48584 32 6.48584C31.8489 6.48584 31.7004 6.52514 31.569 6.59988L0.444002 24.2364C0.308931 24.3128 0.196625 24.4238 0.118601 24.558C0.0405779 24.6922 -0.000354339 24.8447 2.31086e-06 24.9999V30.7444C-0.000149963 30.8974 0.0398515 31.0478 0.116011 31.1805C0.19217 31.3132 0.301821 31.4236 0.434011 31.5007C0.5662 31.5778 0.7163 31.6188 0.869316 31.6197C1.02233 31.6206 1.17291 31.5814 1.306 31.5059L4.2185 29.8559V56.6399C4.21864 56.8719 4.31086 57.0944 4.47493 57.2584C4.639 57.4225 4.86148 57.5147 5.0935 57.5149H11.281C11.5131 57.5149 11.7356 57.4227 11.8997 57.2586C12.0638 57.0945 12.156 56.8719 12.156 56.6399V54.6399C12.9695 55.6425 14.0201 56.4265 15.2128 56.921C16.4054 57.4156 17.7026 57.605 18.9869 57.4721C20.2711 57.3393 21.5021 56.8885 22.5683 56.1603C23.6345 55.4322 24.5024 54.4498 25.0935 53.3019C25.7469 54.5704 26.737 55.6345 27.9553 56.3773C29.1735 57.1202 30.5729 57.5132 31.9998 57.5132C33.4267 57.5132 34.826 57.1202 36.0443 56.3773C37.2625 55.6345 38.2526 54.5704 38.906 53.3019C39.4971 54.4498 40.365 55.4322 41.4312 56.1603C42.4975 56.8885 43.7284 57.3393 45.0127 57.4721C46.2969 57.605 47.5941 57.4156 48.7867 56.921C49.9794 56.4265 51.03 55.6425 51.8435 54.6399V56.6399C51.8436 56.8719 51.9359 57.0944 52.0999 57.2584C52.264 57.4225 52.4865 57.5147 52.7185 57.5149H58.906C59.1381 57.5149 59.3606 57.4227 59.5247 57.2586C59.6888 57.0945 59.781 56.8719 59.781 56.6399V29.8554L62.694 31.5054C62.8271 31.5809 62.9776 31.6201 63.1306 31.6192C63.2835 31.6183 63.4336 31.5773 63.5658 31.5003C63.698 31.4233 63.8076 31.313 63.8838 31.1803C63.96 31.0477 64.0001 30.8974 64 30.7444V24.9999C64.0004 24.8447 63.9594 24.6922 63.8814 24.558C63.8034 24.4238 63.6911 24.3128 63.556 24.2364ZM10.406 55.7649H5.9685V28.8649L10.406 26.3499V55.7649ZM32 14.1129L51.8435 25.3574V44.8259C51.1153 43.9284 50.1961 43.2047 49.1527 42.7076C48.1094 42.2105 46.9682 41.9525 45.8125 41.9524C45.688 41.9524 45.567 41.9654 45.4445 41.9709C46.0164 41.0862 46.4024 40.0945 46.5793 39.056C46.7561 38.0175 46.7201 36.9539 46.4733 35.9298C46.2266 34.9057 45.7742 33.9424 45.1438 33.0984C44.5134 32.2544 43.718 31.5474 42.8059 31.0203C41.8939 30.4931 40.8842 30.1568 39.8382 30.0318C38.7922 29.9067 37.7318 29.9956 36.7212 30.293C35.7106 30.5903 34.771 31.09 33.9594 31.7616C33.1478 32.4332 32.4812 33.2628 32 34.1999C31.5196 33.2613 30.8533 32.4303 30.0417 31.7574C29.2301 31.0844 28.29 30.5836 27.2788 30.2853C26.2675 29.987 25.2061 29.8976 24.1592 30.0224C23.1123 30.1472 22.1017 30.4836 21.1888 31.0112C20.276 31.5388 19.4801 32.2466 18.8493 33.0915C18.2186 33.9364 17.7664 34.9007 17.5201 35.9259C17.2737 36.951 17.2385 38.0156 17.4165 39.0548C17.5945 40.094 17.982 41.0861 18.5555 41.9709C18.4325 41.9654 18.3115 41.9524 18.1875 41.9524C17.0317 41.9525 15.8905 42.2105 14.847 42.7076C13.8036 43.2047 12.8843 43.9284 12.156 44.8259V25.3574L32 14.1129ZM25.0935 43.7999C23.9006 43.7999 22.7345 43.4462 21.7427 42.7835C20.7508 42.1208 19.9778 41.1788 19.5212 40.0768C19.0647 38.9747 18.9452 37.762 19.1778 36.5921C19.4105 35.4221 19.9848 34.3474 20.8282 33.5038C21.6717 32.6603 22.7463 32.0857 23.9162 31.8529C25.0861 31.6201 26.2988 31.7394 27.401 32.1957C28.5031 32.6521 29.4452 33.425 30.108 34.4167C30.7709 35.4085 31.1248 36.5745 31.125 37.7674C31.1234 39.3666 30.4875 40.9 29.3567 42.0309C28.226 43.1618 26.6928 43.798 25.0935 43.7999ZM25.0935 45.5499C25.218 45.5499 25.339 45.5369 25.462 45.5309C25.3287 45.7359 25.2058 45.947 25.0935 46.1644C24.9812 45.9467 24.8585 45.7355 24.7255 45.5309C24.85 45.5359 24.9695 45.5499 25.0935 45.5499ZM32 41.3374C32.113 41.555 32.2357 41.7662 32.368 41.9709C32.245 41.9654 32.124 41.9524 32 41.9524C31.876 41.9524 31.7545 41.9654 31.632 41.9709C31.764 41.7659 31.8867 41.5547 32 41.3374ZM38.906 43.7999C37.7131 43.7999 36.547 43.4462 35.5552 42.7835C34.5633 42.1208 33.7903 41.1788 33.3337 40.0768C32.8772 38.9747 32.7577 37.762 32.9903 36.5921C33.223 35.4221 33.7973 34.3474 34.6407 33.5038C35.4842 32.6603 36.5588 32.0857 37.7287 31.8529C38.8986 31.6201 40.1113 31.7394 41.2135 32.1957C42.3156 32.6521 43.2577 33.425 43.9205 34.4167C44.5834 35.4085 44.9373 36.5745 44.9375 37.7674C44.9359 39.3666 44.3 40.9 43.1692 42.0309C42.0385 43.1618 40.5053 43.798 38.906 43.7999ZM38.906 45.5499C39.0305 45.5499 39.1515 45.5369 39.2745 45.5309C39.1412 45.7359 39.0183 45.947 38.906 46.1644C38.7937 45.9467 38.671 45.7355 38.538 45.5309C38.661 45.5359 38.782 45.5499 38.906 45.5499ZM18.1875 55.7649C16.9946 55.765 15.8284 55.4113 14.8364 54.7486C13.8445 54.0859 13.0714 53.144 12.6148 52.0419C12.1582 50.9398 12.0387 49.727 12.2713 48.557C12.504 47.387 13.0784 46.3122 13.9219 45.4686C14.7654 44.6251 15.8401 44.0506 17.0101 43.8178C18.1801 43.585 19.3929 43.7045 20.495 44.1609C21.5972 44.6174 22.5392 45.3905 23.202 46.3824C23.8647 47.3743 24.2185 48.5404 24.2185 49.7334C24.2167 51.3324 23.5807 52.8654 22.45 53.9961C21.3194 55.1268 19.7865 55.7629 18.1875 55.7649ZM32 55.7649C30.8071 55.765 29.6409 55.4113 28.6489 54.7486C27.657 54.0859 26.8839 53.144 26.4273 52.0419C25.9707 50.9398 25.8512 49.727 26.0838 48.557C26.3165 47.387 26.8909 46.3122 27.7344 45.4686C28.5779 44.6251 29.6526 44.0506 30.8226 43.8178C31.9926 43.585 33.2054 43.7045 34.3075 44.1609C35.4097 44.6174 36.3517 45.3905 37.0145 46.3824C37.6772 47.3743 38.031 48.5404 38.031 49.7334C38.0291 51.3324 37.3932 52.8654 36.2626 53.9961C35.1319 55.1268 33.599 55.7629 32 55.7649ZM45.8125 55.7649C44.6196 55.765 43.4534 55.4113 42.4614 54.7486C41.4695 54.0859 40.6964 53.144 40.2398 52.0419C39.7832 50.9398 39.6637 49.727 39.8963 48.557C40.129 47.387 40.7034 46.3122 41.5469 45.4686C42.3904 44.6251 43.4651 44.0506 44.6351 43.8178C45.8051 43.585 47.0179 43.7045 48.12 44.1609C49.2222 44.6174 50.1642 45.3905 50.827 46.3824C51.4897 47.3743 51.8435 48.5404 51.8435 49.7334C51.8416 51.3324 51.2057 52.8654 50.0751 53.9961C48.9444 55.1268 47.4115 55.7629 45.8125 55.7649ZM58.031 28.8649V55.7649H53.5935V26.3499L58.031 28.8649ZM62.25 29.2444L32.431 12.3459C32.2997 12.2711 32.1511 12.2318 32 12.2318C31.8489 12.2318 31.7004 12.2711 31.569 12.3459L1.75 29.2429V25.5074L32 8.36538L62.25 25.5074V29.2444Z" fill="#BF1731"/>
<path d="M18.1875 45.9521C17.4396 45.952 16.7084 46.1738 16.0864 46.5892C15.4645 47.0047 14.9797 47.5953 14.6935 48.2863C14.4072 48.9773 14.3323 49.7377 14.4782 50.4713C14.624 51.2048 14.9842 51.8787 15.5131 52.4076C16.042 52.9365 16.7158 53.2966 17.4494 53.4425C18.183 53.5884 18.9434 53.5135 19.6344 53.2272C20.3254 52.9409 20.916 52.4562 21.3314 51.8342C21.7469 51.2123 21.9686 50.4811 21.9685 49.7332C21.9673 48.7307 21.5686 47.7697 20.8598 47.0609C20.151 46.3521 19.1899 45.9533 18.1875 45.9521ZM18.1875 51.7646C17.7857 51.7647 17.3929 51.6457 17.0587 51.4225C16.7246 51.1994 16.4641 50.8821 16.3103 50.5109C16.1565 50.1397 16.1162 49.7312 16.1945 49.3371C16.2728 48.943 16.4663 48.581 16.7504 48.2968C17.0344 48.0127 17.3964 47.8191 17.7905 47.7407C18.1846 47.6623 18.5931 47.7025 18.9643 47.8562C19.3356 48.01 19.6529 48.2704 19.8761 48.6045C20.0994 48.9385 20.2185 49.3313 20.2185 49.7332C20.218 50.2717 20.0039 50.788 19.6231 51.1689C19.2423 51.5497 18.7261 51.764 18.1875 51.7646Z" fill="#BF1731"/>
<path d="M32 45.9521C31.2521 45.952 30.5209 46.1738 29.8989 46.5892C29.277 47.0047 28.7922 47.5953 28.506 48.2863C28.2197 48.9773 28.1448 49.7377 28.2907 50.4713C28.4365 51.2048 28.7967 51.8787 29.3256 52.4076C29.8545 52.9365 30.5283 53.2966 31.2619 53.4425C31.9955 53.5884 32.7559 53.5135 33.4469 53.2272C34.1379 52.9409 34.7285 52.4562 35.1439 51.8342C35.5594 51.2123 35.7811 50.4811 35.781 49.7332C35.7798 48.7307 35.3811 47.7697 34.6723 47.0609C33.9635 46.3521 33.0024 45.9533 32 45.9521ZM32 51.7646C31.5982 51.7647 31.2054 51.6457 30.8712 51.4225C30.5371 51.1994 30.2766 50.8821 30.1228 50.5109C29.969 50.1397 29.9287 49.7312 30.007 49.3371C30.0853 48.943 30.2788 48.581 30.5629 48.2968C30.8469 48.0127 31.2089 47.8191 31.603 47.7407C31.9971 47.6623 32.4056 47.7025 32.7768 47.8562C33.1481 48.01 33.4654 48.2704 33.6886 48.6045C33.9119 48.9385 34.031 49.3313 34.031 49.7332C34.0305 50.2717 33.8164 50.788 33.4356 51.1689C33.0548 51.5497 32.5386 51.764 32 51.7646Z" fill="#BF1731"/>
<path d="M25.0935 33.9863C24.3456 33.9863 23.6144 34.2081 22.9926 34.6237C22.3707 35.0392 21.886 35.6298 21.5998 36.3208C21.3136 37.0118 21.2388 37.7722 21.3847 38.5057C21.5307 39.2393 21.8909 39.9131 22.4198 40.4419C22.9487 40.9708 23.6225 41.3309 24.3561 41.4767C25.0897 41.6226 25.85 41.5476 26.541 41.2613C27.2319 40.975 27.8225 40.4903 28.238 39.8684C28.6534 39.2464 28.8751 38.5153 28.875 37.7673C28.8738 36.7648 28.475 35.8037 27.7661 35.0949C27.0572 34.3861 26.096 33.9874 25.0935 33.9863ZM25.0935 39.7988C24.6917 39.7988 24.299 39.6797 23.9649 39.4565C23.6308 39.2332 23.3704 38.916 23.2167 38.5447C23.0629 38.1735 23.0227 37.7651 23.101 37.371C23.1794 36.9769 23.3729 36.615 23.657 36.3308C23.9411 36.0467 24.3031 35.8532 24.6972 35.7749C25.0913 35.6965 25.4997 35.7367 25.8709 35.8905C26.2421 36.0442 26.5594 36.3046 26.7826 36.6387C27.0059 36.9728 27.125 37.3655 27.125 37.7673C27.1247 38.3061 26.9107 38.8228 26.5298 39.2039C26.1489 39.585 25.6323 39.7993 25.0935 39.7998V39.7988Z" fill="#BF1731"/>
<path d="M38.906 33.9863C38.1581 33.9863 37.4269 34.2081 36.8051 34.6237C36.1832 35.0392 35.6985 35.6298 35.4123 36.3208C35.1261 37.0118 35.0513 37.7722 35.1972 38.5057C35.3432 39.2393 35.7034 39.9131 36.2323 40.4419C36.7612 40.9708 37.435 41.3309 38.1686 41.4767C38.9022 41.6226 39.6625 41.5476 40.3535 41.2613C41.0444 40.975 41.635 40.4903 42.0505 39.8684C42.4659 39.2464 42.6876 38.5153 42.6875 37.7673C42.6863 36.7648 42.2875 35.8037 41.5786 35.0949C40.8697 34.3861 39.9085 33.9874 38.906 33.9863ZM38.906 39.7988C38.5042 39.7988 38.1115 39.6797 37.7774 39.4565C37.4433 39.2332 37.1829 38.916 37.0292 38.5447C36.8754 38.1735 36.8352 37.7651 36.9136 37.371C36.9919 36.9769 37.1854 36.615 37.4695 36.3308C37.7536 36.0467 38.1156 35.8532 38.5097 35.7749C38.9038 35.6965 39.3122 35.7367 39.6834 35.8905C40.0546 36.0442 40.3719 36.3046 40.5951 36.6387C40.8184 36.9728 40.9375 37.3655 40.9375 37.7673C40.9372 38.3061 40.7232 38.8228 40.3423 39.2039C39.9614 39.585 39.4448 39.7993 38.906 39.7998V39.7988Z" fill="#BF1731"/>
<path d="M45.8125 45.9521C45.0646 45.952 44.3334 46.1738 43.7114 46.5892C43.0895 47.0047 42.6047 47.5953 42.3185 48.2863C42.0322 48.9773 41.9573 49.7377 42.1032 50.4713C42.249 51.2048 42.6092 51.8787 43.1381 52.4076C43.667 52.9365 44.3408 53.2966 45.0744 53.4425C45.808 53.5884 46.5684 53.5135 47.2594 53.2272C47.9504 52.9409 48.5409 52.4562 48.9564 51.8342C49.3719 51.2123 49.5936 50.4811 49.5935 49.7332C49.5923 48.7307 49.1936 47.7697 48.4848 47.0609C47.776 46.3521 46.8149 45.9533 45.8125 45.9521ZM45.8125 51.7646C45.4107 51.7647 45.0179 51.6457 44.6837 51.4225C44.3496 51.1994 44.0891 50.8821 43.9353 50.5109C43.7815 50.1397 43.7412 49.7312 43.8195 49.3371C43.8978 48.943 44.0913 48.581 44.3754 48.2968C44.6594 48.0127 45.0214 47.8191 45.4155 47.7407C45.8096 47.6623 46.2181 47.7025 46.5893 47.8562C46.9606 48.01 47.2779 48.2704 47.5011 48.6045C47.7244 48.9385 47.8435 49.3313 47.8435 49.7332C47.843 50.2717 47.6289 50.788 47.2481 51.1689C46.8673 51.5497 46.3511 51.764 45.8125 51.7646Z" fill="#BF1731"/>
</g>
<defs>
<clipPath id="clip0_195_319">
<rect width="64" height="64" fill="white"/>
</clipPath>
</defs>
</svg>
