<svg width="64" height="64" viewBox="0 0 64 64" fill="none" xmlns="http://www.w3.org/2000/svg">
<path d="M61.1901 31.7101L52.3901 15.0901C52.3001 14.9201 52.1701 14.7901 52.0101 14.6901L32.5001 3.40014C32.1901 3.22014 31.8101 3.22014 31.5001 3.40014L12.0001 14.6901C11.8401 14.7801 11.7101 14.9201 11.6201 15.0901L2.81009 31.7101C2.29009 32.6801 2.67009 33.9001 3.64009 34.4101L5.41009 35.3501C5.70009 35.5101 6.02009 35.5801 6.34009 35.5801C6.54009 35.5801 6.74009 35.5501 6.93009 35.4901C7.37009 35.3501 7.73009 35.0701 7.99009 34.7001V58.9901C7.99009 60.0901 8.89009 60.9901 9.99009 60.9901H53.9901C55.0901 60.9901 55.9901 60.0901 55.9901 58.9901V34.7001C56.2401 35.0701 56.6101 35.3601 57.0501 35.4901C57.5601 35.6501 58.1001 35.5901 58.5801 35.3401L60.3501 34.4001C61.3201 33.8801 61.6901 32.6701 61.1801 31.7001L61.1901 31.7101ZM33.7701 41.0001H43.1601L38.2801 48.5101L33.7701 41.0001ZM37.0601 50.3801L33.0001 56.6301V43.6101L37.0601 50.3801ZM31.0001 43.6101V56.6301L26.9401 50.3801L31.0001 43.6101ZM25.7301 48.5101L20.8501 41.0001H30.2401L25.7301 48.5101ZM30.1601 59.0001H21.7701L25.8001 52.2901L30.1601 59.0001ZM38.2101 52.2901L42.2401 59.0001H33.8501L38.2101 52.2901ZM39.4201 50.4201L44.0001 43.3701V58.0501L39.4201 50.4101V50.4201ZM45.0001 38.9601C45.0001 38.9601 44.9801 39.0001 44.9601 39.0001L19.0001 38.9601L19.0401 37.0001L45.0001 37.0401V38.9601ZM24.5801 50.4201L20.0001 58.0601V43.3801L24.5801 50.4301V50.4201ZM46.0001 59.0001V40.7101C46.6001 40.3501 47.0001 39.7101 47.0001 38.9701V37.0501C47.0001 35.9301 46.0901 35.0101 44.9601 35.0101H19.0401C17.9201 35.0101 17.0001 35.9201 17.0001 37.0501V38.9701C17.0001 39.7101 17.4001 40.3601 18.0001 40.7101V59.0001H10.0001V30.9701L16.2501 19.1601L32.0001 10.1501L47.7501 19.1601L54.0001 30.9701V59.0001H46.0001ZM59.4201 32.6501L57.6501 33.5901L49.3901 17.9801C49.3001 17.8101 49.1701 17.6701 49.0001 17.5801L32.5001 8.14014C32.1901 7.96014 31.8101 7.96014 31.5101 8.14014L15.0101 17.5801C14.8501 17.6701 14.7101 17.8101 14.6201 17.9801L6.36009 33.6001L4.59009 32.6601L13.2601 16.3001L32.0101 5.44014L50.7601 16.3001L59.4301 32.6601L59.4201 32.6501ZM39.0001 18.0101H25.0001C24.4501 18.0101 24.0001 18.4601 24.0001 19.0101V31.0101C24.0001 31.5601 24.4501 32.0101 25.0001 32.0101H39.0001C39.5501 32.0101 40.0001 31.5601 40.0001 31.0101V19.0101C40.0001 18.4601 39.5501 18.0101 39.0001 18.0101ZM38.0001 24.0101H33.0001V20.0101H38.0001V24.0101ZM26.0001 20.0101H31.0001V24.0101H26.0001V20.0101ZM26.0001 26.0101H31.0001V30.0101H26.0001V26.0101ZM38.0001 30.0101H33.0001V26.0101H38.0001V30.0101Z" fill="#BF1731"/>
</svg>
