<svg width="64" height="64" viewBox="0 0 64 64" fill="none" xmlns="http://www.w3.org/2000/svg">
<g clip-path="url(#clip0_195_201)">
<path d="M58.8465 32.5728C58.8465 32.0549 58.4269 31.6353 57.909 31.6353H42.4065C41.8886 31.6353 41.469 32.0549 41.469 32.5728V36.1068C41.469 36.6246 41.8886 37.0443 42.4065 37.0443H57.9091C58.427 37.0443 58.8466 36.6246 58.8466 36.1068V32.5728H58.8465ZM56.9715 35.1693H43.344V33.5103H56.9716V35.1693H56.9715Z" fill="#BF1731"/>
<path d="M49.2166 39.8315C49.2166 39.3137 48.797 38.894 48.2791 38.894H42.4065C41.8886 38.894 41.469 39.3137 41.469 39.8315V43.3654C41.469 43.8833 41.8886 44.3029 42.4065 44.3029H48.2791C48.797 44.3029 49.2166 43.8833 49.2166 43.3654V39.8315ZM47.3416 42.428H43.344V40.7692H47.3416V42.428Z" fill="#BF1731"/>
<path d="M58.8465 39.8315C58.8465 39.3137 58.4269 38.894 57.909 38.894H52.0364C51.5185 38.894 51.0989 39.3137 51.0989 39.8315V43.3654C51.0989 43.8833 51.5185 44.3029 52.0364 44.3029H57.909C58.4269 44.3029 58.8465 43.8833 58.8465 43.3654V39.8315ZM56.9715 42.428H52.9739V40.7692H56.9715V42.428Z" fill="#BF1731"/>
<path d="M48.2791 46.1528H42.4065C41.8886 46.1528 41.469 46.5725 41.469 47.0903V50.6243C41.469 51.1422 41.8886 51.5618 42.4065 51.5618H48.2791C48.797 51.5618 49.2166 51.1422 49.2166 50.6243V47.0903C49.2166 46.5725 48.797 46.1528 48.2791 46.1528ZM47.3416 49.6868H43.344V48.0278H47.3416V49.6868Z" fill="#BF1731"/>
<path d="M57.909 46.1528H52.0364C51.5185 46.1528 51.0989 46.5725 51.0989 47.0903V50.6243C51.0989 51.1422 51.5185 51.5618 52.0364 51.5618H57.909C58.4269 51.5618 58.8465 51.1422 58.8465 50.6243V47.0903C58.8465 46.5725 58.4269 46.1528 57.909 46.1528ZM56.9715 49.6868H52.9739V48.0278H56.9715V49.6868Z" fill="#BF1731"/>
<path d="M63.0625 19.6301H55.8655C55.4566 19.6301 55.0947 19.8952 54.9716 20.2851L53.0381 26.4041H37.2531C36.7352 26.4041 36.3156 26.8237 36.3156 27.3416V37.9972L23.287 40.4966L23.9215 31.0497H30.923L31.2036 35.228C31.2384 35.7446 31.6856 36.1335 32.2019 36.1005C32.7185 36.0657 33.1091 35.6187 33.0744 35.1022L31.9206 17.9235C31.8876 17.4312 31.4786 17.0488 30.9853 17.0488H23.8592C23.3659 17.0488 22.957 17.4312 22.9239 17.9235L21.3832 40.8617L16.2281 41.8506L14.8837 21.8506C14.8506 21.3583 14.4417 20.9758 13.9484 20.9758H12.4529C11.9351 20.9758 11.5154 21.3955 11.5154 21.9133C11.5154 22.4312 11.9351 22.8508 12.4529 22.8508H13.0717L13.4228 28.0722H7.34825L7.69887 22.8508H7.9165C8.43425 22.8508 8.854 22.4312 8.854 21.9133C8.854 21.3955 8.43425 20.9758 7.9165 20.9758H6.82225C6.32888 20.9758 5.91988 21.3583 5.88688 21.8506L4.15588 47.6255L0.769375 48.2426C0.323875 48.3238 0 48.712 0 49.1648V63.0422C0 63.5601 0.41975 63.9797 0.9375 63.9797L63.0625 63.9798C63.5804 63.9798 64 63.5602 64 63.0423V59.5832C64 59.0653 63.5804 58.6457 63.0625 58.6457C62.5446 58.6457 62.125 59.0653 62.125 59.5832V62.1048H54.6625V54.5415C54.6625 54.0236 54.2429 53.604 53.725 53.604H46.5906C46.0728 53.604 45.6531 54.0236 45.6531 54.5415V62.1048H38.1906V28.2791H62.125V55.2915C62.125 55.8093 62.5446 56.229 63.0625 56.229C63.5804 56.229 64 55.8093 64 55.2915V20.5676C64 20.0497 63.5804 19.6301 63.0625 19.6301ZM30.7969 29.1747H24.0474L24.2935 25.5085H30.5506L30.7969 29.1747ZM30.1085 18.924L30.4247 23.6336H24.4194L24.7356 18.924H30.1085ZM47.5281 55.479H52.7875V62.1047H47.5281V55.479ZM13.815 33.9076H6.95687L7.22262 29.9472H13.5481L13.815 33.9076ZM6.8305 35.7826H13.941L14.3729 42.2067L10.2094 43.0055C9.76775 43.0902 9.4485 43.4765 9.4485 43.9261V46.6611L6.05825 47.2788L6.8305 35.7826ZM1.875 49.947L10.5541 48.3655C10.9996 48.2842 11.3235 47.896 11.3235 47.4431V44.7008L36.3155 39.9065V62.1048H1.875V49.947ZM55.0044 26.4041L56.5525 21.5051H62.125V26.4041H55.0044Z" fill="#BF1731"/>
<path d="M24.6902 10.1745C24.7057 10.1745 24.7182 10.1865 24.7182 10.2011V11.9569C24.7182 15.4476 30.1272 15.4349 30.1272 11.9569V10.201C30.1497 10.1659 30.1831 10.157 30.2274 10.1744C31.8442 10.1744 33.3264 9.09102 33.8152 7.54939H35.8577C40.7265 7.54939 40.6929 0.0200195 35.8577 0.0200195H30.25C28.633 0.0200195 27.1511 1.10339 26.662 2.64502H24.6181C19.7215 2.64502 19.8 10.1745 24.6902 10.1745ZM23.2822 5.07389C23.6394 4.71677 24.1137 4.52002 24.6182 4.52002H27.4312C27.924 4.52002 28.3327 4.13839 28.3665 3.64689C28.4329 2.68064 29.2807 1.89502 30.2499 1.89502H35.8576C38.2645 1.89502 38.3362 5.67439 35.8576 5.67439H33.046C32.5532 5.67439 32.1445 6.05602 32.1107 6.54752C32.0444 7.51377 31.1965 8.29939 30.2274 8.29939C29.171 8.29802 28.2522 9.11752 28.2522 10.201V11.9568C28.2522 13.0263 26.5932 13.0276 26.5932 11.9568V10.201C26.5932 9.15239 25.7395 8.29939 24.6902 8.29939C23.0477 8.29952 22.0824 6.27377 23.2822 5.07389Z" fill="#BF1731"/>
<path d="M3.8974 11.4466C4.2669 13.1826 5.89327 14.4375 7.6549 14.4375C7.67002 14.4375 7.6814 14.449 7.6814 14.4641V16.2197C7.6814 19.7106 13.0904 19.6979 13.0904 16.2197V14.4641C13.1129 14.429 13.1463 14.4201 13.1904 14.4375C18.0589 14.4375 18.0253 6.90811 13.1904 6.90811H8.93315C8.59115 5.06061 6.96777 3.65674 5.02265 3.65674C2.8299 3.65674 1.0459 5.44061 1.0459 7.63349C1.04602 9.40974 2.24827 10.9559 3.8974 11.4466ZM5.02277 5.53174C6.18165 5.53174 7.12452 6.47461 7.12452 7.63349C7.12452 8.20136 7.38652 8.78299 8.05352 8.78299H13.1905C15.5971 8.78299 15.6691 12.5624 13.1905 12.5624C12.1341 12.561 11.2155 13.3805 11.2155 14.464V16.2196C11.2155 17.2892 9.55652 17.2906 9.55652 16.2196V14.464C9.55652 13.4154 8.70352 12.5624 7.65502 12.5624C6.61877 12.5624 5.68452 11.7157 5.69177 10.6599C5.69177 10.1734 5.31965 9.76774 4.83502 9.72586C3.76177 9.63299 2.92102 8.71374 2.92102 7.63336C2.92102 6.47461 3.86377 5.53174 5.02277 5.53174Z" fill="#BF1731"/>
<path d="M16.0178 50.9814H19.2713C19.7891 50.9814 20.2088 50.5618 20.2088 50.0439V46.7905C20.2088 46.2727 19.7891 45.853 19.2713 45.853H16.0178C15.5001 45.853 15.0803 46.2727 15.0803 46.7905V50.0439C15.0803 50.5617 15.4999 50.9814 16.0178 50.9814ZM16.9553 47.7279H18.3338V49.1063H16.9553V47.7279Z" fill="#BF1731"/>
<path d="M22.7092 50.9814H25.9626C26.4804 50.9814 26.9001 50.5618 26.9001 50.0439V46.7905C26.9001 46.2727 26.4804 45.853 25.9626 45.853H22.7092C22.1915 45.853 21.7717 46.2727 21.7717 46.7905V50.0439C21.7717 50.5617 22.1915 50.9814 22.7092 50.9814ZM23.6467 47.7279H25.0251V49.1063H23.6467V47.7279Z" fill="#BF1731"/>
<path d="M32.6539 45.853H29.4004C28.8826 45.853 28.4629 46.2727 28.4629 46.7905V50.0439C28.4629 50.5618 28.8826 50.9814 29.4004 50.9814H32.6539C33.1718 50.9814 33.5914 50.5618 33.5914 50.0439V46.7905C33.5914 46.2728 33.1718 45.853 32.6539 45.853ZM31.7164 49.1065H30.3379V47.7282H31.7164V49.1065Z" fill="#BF1731"/>
<path d="M32.654 53.1875H6.5625C6.04475 53.1875 5.625 53.6071 5.625 54.125C5.625 54.6429 6.04475 55.0625 6.5625 55.0625H32.654C33.1719 55.0625 33.5915 54.6429 33.5915 54.125C33.5915 53.6071 33.1719 53.1875 32.654 53.1875Z" fill="#BF1731"/>
</g>
<defs>
<clipPath id="clip0_195_201">
<rect width="64" height="64" fill="white"/>
</clipPath>
</defs>
</svg>
