<svg width="108" height="74" viewBox="0 0 108 74" fill="none" xmlns="http://www.w3.org/2000/svg">
<path d="M80.2368 20.6313V31.6153L73.351 20.6313H45.5879L47.6998 27.1161H54.1071V43.1383H60.5914V27.1161H66.8612V43.1383H73.351V32.1599L80.2368 43.1383H86.7265V27.1161H92.9908V43.1383H99.4806V27.1161H105.888L108 20.6313H80.2368Z" fill="white"/>
<path d="M50.5214 56.9053L38.9002 48.4625L27.2791 56.9053L31.7174 43.2427L20.0963 34.7944H34.4618L38.9002 21.1319L42.3321 10.566L38.9002 0L29.7155 28.2656H0L24.0397 45.7344L14.855 74L38.9002 56.5313L62.9454 74L57.7041 57.8789L50.5214 56.9053Z" fill="white"/>
<path d="M49.1792 62.0421H94.5418L96.2137 56.9053H49.1792V62.0421Z" fill="white"/>
<path d="M58.8097 51.9657C60.1077 51.9657 60.5972 51.7731 60.5972 51.2892C60.5972 50.9317 60.3057 50.7887 59.5302 50.7502L56.6648 50.6292C55.0203 50.5467 54.1789 49.8812 54.1789 48.6273C54.1789 46.9498 55.6748 46.1523 58.8262 46.1523C61.9776 46.1523 63.4901 47.0543 63.5726 49.0013H60.8062C60.6852 48.3358 60.1187 48.0718 58.8647 48.0718C57.5228 48.0718 57.0113 48.2643 57.0113 48.7648C57.0113 49.1222 57.3303 49.2652 58.1553 49.3037L60.7732 49.4138C62.5331 49.4963 63.4296 50.1782 63.4296 51.4597C63.4296 53.0766 61.8952 53.8796 58.8373 53.8796C55.7794 53.8796 54.2064 53.0326 54.1074 51.1682H56.9453C57.0443 51.7237 57.5943 51.9602 58.8097 51.9602V51.9657Z" fill="white"/>
<path d="M73.0598 46.3726V48.3965H69.8094V53.6708H67.0375V48.3965H63.7871V46.3726H73.0653H73.0598Z" fill="white"/>
<path d="M81.7165 46.3722V48.2256H76.4147V49.2651H81.1776V50.8326H76.4147V51.817H81.6285V53.6705H73.6428V46.3667H81.722L81.7165 46.3722Z" fill="white"/>
<path d="M90.6427 46.3722V48.2256H85.3408V49.2651H90.1092V50.8326H85.3408V51.817H90.5547V53.6705H82.5635V46.3667H90.6427V46.3722Z" fill="white"/>
<path d="M94.267 51.6469V46.3726H91.4951V53.6763H97.2644L97.9189 51.6469H94.267Z" fill="white"/>
</svg>
