<svg width="108" height="74" viewBox="0 0 108 74" fill="none" xmlns="http://www.w3.org/2000/svg">
<path d="M80.2424 20.6258V31.6098L73.3511 20.6258H45.5935L47.7 27.1161H54.1072V43.1382H60.597V27.1161H66.8614V43.1382H73.3511V32.1543L80.2424 43.1382H86.7267V27.1161H92.9964V43.1382H99.4807V27.1161H105.894L108 20.6258H80.2424Z" fill="white"/>
<path d="M50.5268 56.8998L38.9002 48.457L27.279 56.8998L31.7174 43.2373L20.0964 34.7944H34.4618L38.9002 21.1319L42.3321 10.5659L38.9002 0L29.721 28.2657H0L24.0452 45.7343L14.8605 74L38.9002 56.5313L62.9454 74L57.7096 57.8788L50.5268 56.8998Z" fill="#BF1731"/>
<path d="M49.1794 62.0425H94.5474L96.2139 56.8998H49.1794V62.0425Z" fill="#BF1731"/>
<path d="M58.8098 51.9661C60.1078 51.9661 60.5972 51.7736 60.5972 51.2896C60.5972 50.9321 60.3058 50.7891 59.5303 50.7506L56.6649 50.6296C55.0205 50.5471 54.179 49.8815 54.179 48.6275C54.179 46.9499 55.6749 46.1524 58.8263 46.1524C61.9777 46.1524 63.4901 47.0544 63.5726 49.0015H60.8063C60.6853 48.336 60.1188 48.0719 58.8648 48.0719C57.5229 48.0719 57.0113 48.2645 57.0113 48.765C57.0113 49.1225 57.3304 49.2655 58.1553 49.304L60.7733 49.414C62.5332 49.4965 63.4296 50.1785 63.4296 51.4601C63.4296 53.0772 61.8952 53.8802 58.8373 53.8802C55.7794 53.8802 54.2064 53.0332 54.1074 51.1686H56.9454C57.0444 51.7241 57.5943 51.9606 58.8098 51.9606V51.9661Z" fill="white"/>
<path d="M73.0595 46.367V48.3911H69.8091V53.6658H67.0372V48.3911H63.7869V46.367H73.065H73.0595Z" fill="white"/>
<path d="M81.716 46.367V48.2206H76.4143V49.2601H81.1771V50.8277H76.4143V51.8122H81.6281V53.6658H73.6423V46.3615H81.7215L81.716 46.367Z" fill="white"/>
<path d="M90.6426 46.367V48.2206H85.3407V49.2601H90.109V50.8277H85.3407V51.8122H90.5545V53.6658H82.5632V46.3615H90.6426V46.367Z" fill="white"/>
<path d="M94.2723 51.6472V46.367H91.4949V53.6713H97.2642L97.9243 51.6472H94.2723Z" fill="white"/>
</svg>
